<svg width="24" height="24" viewBox="0 0 24 24" fill="none" xmlns="http://www.w3.org/2000/svg">
<path d="M4.76562 7.69407C5.5927 7.40804 6.53832 7.39927 7.46484 7.93333L7.62207 8.02903C8.40249 8.53257 9.09272 9.3775 9.69141 10.2585C10.3484 11.2254 10.9809 12.369 11.5674 13.4753C12.1653 14.6032 12.705 15.6717 13.2148 16.5759C13.7437 17.5138 14.1452 18.095 14.4189 18.3318C14.5651 18.4581 14.781 18.5323 15.1562 18.4861C15.547 18.4378 16.0111 18.2659 16.4922 18.0163C16.9633 17.7719 17.3968 17.4819 17.7168 17.2478C17.8753 17.1318 18.0028 17.0319 18.0889 16.9626C18.1318 16.9281 18.1647 16.9009 18.1855 16.8835C18.1956 16.8751 18.2027 16.8687 18.207 16.865L18.2119 16.8611L19.5186 18.3757L19.5176 18.3767C19.5167 18.3775 19.515 18.3785 19.5137 18.3796C19.511 18.3819 19.5072 18.3848 19.5029 18.3884C19.4944 18.3957 19.4825 18.4054 19.4678 18.4177C19.438 18.4426 19.3961 18.4783 19.3428 18.5212C19.2363 18.6069 19.0841 18.7255 18.8975 18.862C18.5269 19.1331 18.0041 19.4851 17.4131 19.7917C16.8318 20.0933 16.1271 20.3818 15.4023 20.4714C14.6623 20.5628 13.8152 20.453 13.1113 19.8445C12.535 19.3462 11.9796 18.4574 11.4727 17.5583C10.9467 16.6256 10.3714 15.4892 9.80078 14.4128C9.21854 13.3145 8.62847 12.2528 8.03711 11.3825C7.50359 10.5974 7.02984 10.0617 6.63184 9.77415L6.46582 9.66575C6.1174 9.46498 5.78713 9.45639 5.41895 9.58372C5.01411 9.7238 4.57845 10.0289 4.15137 10.4392C3.7327 10.8414 3.37459 11.2947 3.11719 11.655C2.99 11.8331 2.89063 11.984 2.82422 12.0886C2.79106 12.1408 2.76577 12.1816 2.75 12.2077C2.74232 12.2205 2.73664 12.2296 2.7334 12.2351L2.73047 12.2409L1 11.238L1.00098 11.2361C1.00167 11.2349 1.0029 11.2329 1.00391 11.2312C1.00586 11.2278 1.00864 11.2237 1.01172 11.2185C1.01825 11.2074 1.02764 11.1915 1.03906 11.1726C1.06188 11.1348 1.09436 11.0815 1.13574 11.0163C1.2187 10.8857 1.33881 10.7039 1.49023 10.4919C1.79062 10.0715 2.22915 9.51311 2.7666 8.9968C3.29556 8.48872 3.9755 7.96736 4.76562 7.69407Z" fill="#707070"/>
<path fill-rule="evenodd" clip-rule="evenodd" d="M23 20.5V3.5H21V20.5H23Z" fill="#2ECC71"/>
</svg>
