<svg width="24" height="24" viewBox="0 0 24 24" fill="none" xmlns="http://www.w3.org/2000/svg">
<path d="M14.83 13.83C15.55 13.11 16 12.11 16 11C16 9.88999 15.55 8.88999 14.83 8.16999L16.24 6.75999C17.33 7.84999 18 9.34999 18 11C18 12.65 17.33 14.15 16.24 15.24L14.83 13.83ZM14 11C14 10.4696 13.7893 9.96085 13.4142 9.58578C13.0391 9.21071 12.5304 8.99999 12 8.99999C11.4 8.99999 10.87 9.26999 10.5 9.67999L13.32 12.5C13.73 12.13 14 11.6 14 11ZM17.66 16.66L19.07 18.07C20.88 16.26 22 13.76 22 11C22 8.23999 20.88 5.73999 19.07 3.92999L17.66 5.33999C19.11 6.77999 20 8.78999 20 11C20 13.22 19.11 15.22 17.66 16.66ZM22 21.18V20H20.82L22 21.18ZM20.27 22L21 22.73L19.73 24L17.73 22H15C15 22.2652 14.8946 22.5196 14.7071 22.7071C14.5196 22.8946 14.2652 23 14 23H10C9.73478 23 9.48043 22.8946 9.29289 22.7071C9.10536 22.5196 9 22.2652 9 22H2V20H9C9 19.7348 9.10536 19.4804 9.29289 19.2929C9.48043 19.1053 9.73478 19 10 19H11V15.27L8.34 12.61C8.54 13.07 8.82 13.5 9.17 13.83L7.76 15.24C6.67 14.15 6 12.65 6 11C6 10.77 6 10.54 6.04 10.31L4.37 8.63999C4.14 9.38999 4 10.18 4 11C4 13.22 4.89 15.22 6.34 16.66L4.93 18.07C3.12 16.26 2 13.76 2 11C2 9.60999 2.29 8.27999 2.81 7.07999L1 5.26999L2.28 3.99999L3.7 5.41999L5.15 6.86999L6.63 8.34999L8.17 9.89999L10.28 12L11 12.71L18.27 20H18.28L20.28 22H20.27ZM15.73 20L13 17.27V19H14C14.2652 19 14.5196 19.1053 14.7071 19.2929C14.8946 19.4804 15 19.7348 15 20H15.73Z" fill="#707070"/>
</svg>
