<svg width="115" height="64" viewBox="0 0 115 64" fill="none" xmlns="http://www.w3.org/2000/svg">
<rect x="0.5" y="0.5" width="114" height="63" rx="4.5" stroke="#9747FF" stroke-dasharray="10 5"/>
<path d="M33.75 40.85C35.53 40.15 35.14 38.22 34.24 37C33.35 35.75 32.12 34.89 30.88 34.06C30 33.5 29.19 32.8 28.54 32C28.26 31.67 27.69 31.06 28.27 30.94C28.86 30.82 29.88 31.4 30.4 31.62C31.31 32 32.21 32.44 33.05 32.96L34.06 31.26C32.5 30.23 30.5 29.32 28.64 29.05C27.58 28.89 26.46 29.11 26.1 30.26C25.78 31.25 26.29 32.25 26.87 33.03C28.24 34.86 30.37 35.74 31.96 37.32C32.3 37.65 32.71 38.04 32.91 38.5C33.12 38.94 33.07 38.97 32.6 38.97C31.36 38.97 29.81 38 28.8 37.36L27.79 39.06C29.32 40 31.88 41.47 33.75 40.85ZM44.84 25.25C45.06 25.03 45.06 24.67 44.84 24.46L43.54 23.16C43.33 22.95 42.97 22.95 42.76 23.16L41.74 24.18L43.82 26.26M35 30.92V33H37.08L43.23 26.85L41.15 24.77L35 30.92Z" fill="#707070"/>
<path d="M87.84 25.25C88.06 25.03 88.06 24.67 87.84 24.46L86.54 23.16C86.33 22.95 85.97 22.95 85.76 23.16L84.74 24.18L86.82 26.26M78 30.92V33H80.08L86.23 26.85L84.15 24.77L78 30.92Z" fill="#707070"/>
<path d="M76.75 40.85C78.53 40.15 78.14 38.22 77.24 37C76.35 35.75 75.12 34.89 73.88 34.06C73 33.5 72.19 32.8 71.54 32C71.26 31.67 70.69 31.06 71.27 30.94C71.86 30.82 72.88 31.4 73.4 31.62C74.31 32 75.21 32.44 76.05 32.96L77.06 31.26C75.5 30.23 73.5 29.32 71.64 29.05C70.58 28.89 69.46 29.11 69.1 30.26C68.78 31.25 69.29 32.25 69.87 33.03C71.24 34.86 73.37 35.74 74.96 37.32C75.3 37.65 75.71 38.04 75.91 38.5C76.12 38.94 76.07 38.97 75.6 38.97C74.36 38.97 72.81 38 71.8 37.36L70.79 39.06C72.32 40 74.88 41.47 76.75 40.85Z" fill="#2ECC71"/>
</svg>
