<svg width="24" height="24" viewBox="0 0 24 24" fill="none" xmlns="http://www.w3.org/2000/svg">
<path d="M8.99976 7.99976H10.9998V13.9998H8.99976V7.99976ZM12.9998 0.999756H6.99976V2.99976H12.9998V0.999756ZM17.0298 7.38976C18.2598 8.92976 18.9998 10.8798 18.9998 12.9998C18.9998 17.9698 14.9998 21.9998 9.99976 21.9998C5.02976 21.9998 0.999756 17.9698 0.999756 12.9998C0.999756 8.02976 5.02976 3.99976 9.99976 3.99976C12.1198 3.99976 14.0698 4.73976 15.6198 5.99976L17.0398 4.55976C17.5498 4.99976 17.9998 5.45976 18.4498 5.96976L17.0298 7.38976ZM16.9998 12.9998C16.9998 9.12976 13.8698 5.99976 9.99976 5.99976C6.12976 5.99976 2.99976 9.12976 2.99976 12.9998C2.99976 16.8698 6.12976 19.9998 9.99976 19.9998C13.8698 19.9998 16.9998 16.8698 16.9998 12.9998ZM20.9998 6.99976V12.9998H22.9998V6.99976H20.9998ZM20.9998 16.9998H22.9998V14.9998H20.9998V16.9998Z" fill="#707070"/>
</svg>
