<svg width="24" height="24" viewBox="0 0 24 24" fill="none" xmlns="http://www.w3.org/2000/svg">
<g clip-path="url(#clip0_2008_10702)">
<rect x="2" y="5" width="20" height="14.2857" fill="#F93939"/>
<path d="M20.0952 5H3.90476C2.85279 5 2 5.85279 2 6.90476V17.381C2 18.4329 2.85279 19.2857 3.90476 19.2857H20.0952C21.1472 19.2857 22 18.4329 22 17.381V6.90476C22 5.85279 21.1472 5 20.0952 5Z" fill="#F93939"/>
<path fill-rule="evenodd" clip-rule="evenodd" d="M7.2362 11.8857L5.8362 12.6219L6.10286 11.0628L4.97144 9.95807L6.5362 9.73235L7.2362 8.31331L7.93525 9.73235L9.50001 9.95807L8.36667 11.0628L8.63525 12.6209L7.2362 11.8857ZM10.5714 7.85712H11.5238V8.8095H10.5714V7.85712ZM11.5238 9.76188H12.4762V10.7143H11.5238V9.76188ZM11.5238 11.6666H12.4762V12.619H11.5238V11.6666ZM10.5714 13.5714H11.5238V14.5238H10.5714V13.5714Z" fill="#FFDA2C"/>
</g>
<rect x="1.5" y="4.5" width="21" height="15.2857" stroke="black" stroke-opacity="0.12"/>
<defs>
<clipPath id="clip0_2008_10702">
<rect x="2" y="5" width="20" height="14.2857" fill="white"/>
</clipPath>
</defs>
</svg>
