<svg width="24" height="24" viewBox="0 0 24 24" fill="none" xmlns="http://www.w3.org/2000/svg">
<path d="M7.39998 5.59998L18.4 16.6C18.9 17.1 18.9 17.9 18.4 18.4C17.9 18.9 17.1 18.9 16.6 18.4L5.59998 7.39998C5.09998 6.89998 5.09998 6.09998 5.59998 5.59998C6.09998 5.09998 6.89998 5.09998 7.39998 5.59998Z" fill="#0AAC00"/>
<path d="M18.4 7.39998L7.39998 18.4C6.89998 18.9 6.09998 18.9 5.59998 18.4C5.09998 17.9 5.09998 17.1 5.59998 16.6L16.6 5.59998C17.1 5.09998 17.9 5.09998 18.4 5.59998C18.9 6.09998 18.9 6.89998 18.4 7.39998Z" fill="#F28A0D"/>
</svg>
