<svg width="24" height="24" viewBox="0 0 24 24" fill="none" xmlns="http://www.w3.org/2000/svg">
<rect x="2" y="5" width="20" height="14" fill="white"/>
<rect x="1.5" y="4.5" width="21" height="15" stroke="black" stroke-opacity="0.12"/>
<path d="M2 5H22V18.9959H2V5Z" fill="white"/>
<path d="M14.152 14.4318L22 18.9959V17.7042L16.3977 14.4318H14.152ZM9.80897 9.56415L2 5V6.29174L7.60234 9.56415H9.80897Z" fill="white"/>
<path d="M17.3528 14.4318L22 17.126V14.4318H17.3528ZM14.152 14.4318L22 18.9959V17.7042L16.3977 14.4318H14.152ZM19.8791 18.9959L14.1481 15.6456V18.9959H19.8791ZM5.52047 14.4318L2 16.4903V14.4318H5.52047ZM9.80897 15.0141V19H2.99415L9.80897 15.0141ZM6.60819 9.56415L2 6.86995V9.56415H6.60819ZM9.80897 9.56415L2 5V6.29174L7.60234 9.56415H9.80897ZM4.08187 5L9.81287 8.35032V5H4.08187ZM18.4405 9.56415L22 7.50557V9.56415H18.4405ZM14.152 8.98184V5H20.9708L14.152 8.98184Z" fill="#0052B4"/>
<path d="M13.2281 5H10.7329V10.6878H2V13.3122H10.7329V19H13.2281V13.3122H21.961V10.6878H13.2281V5Z" fill="#E01C21"/>
<path d="M14.152 14.4318L22 18.9959V17.7042L16.3977 14.4318H14.152ZM7.60234 14.4318L2 17.7083V19L9.80897 14.4318H7.60234ZM9.80897 9.56415L2 5V6.29174L7.60234 9.56415H9.80897ZM16.3587 9.56415L22 6.29174V5L14.152 9.56415H16.3587Z" fill="#E01C21"/>
</svg>
