<svg width="20" height="20" viewBox="0 0 20 20" fill="none" xmlns="http://www.w3.org/2000/svg">
<g clip-path="url(#clip0_4139_16079)">
<rect width="30" height="20" transform="translate(-5)" fill="white"/>
<path d="M-5 0H25V19.9941H-5V0Z" fill="white"/>
<path d="M13.2281 13.4739L25 19.9941V18.1488L16.5965 13.4739H13.2281ZM6.71345 6.52021L-5 0V1.84534L3.40351 6.52021H6.71345Z" fill="white"/>
<path d="M18.0292 13.4739L25 17.3228V13.4739H18.0292ZM13.2281 13.4739L25 19.9941V18.1488L16.5965 13.4739H13.2281ZM21.8187 19.9941L13.2222 15.208V19.9941H21.8187ZM0.280702 13.4739L-5 16.4148V13.4739H0.280702ZM6.71345 14.3058V20H-3.50877L6.71345 14.3058ZM1.91228 6.52021L-5 2.67135V6.52021H1.91228ZM6.71345 6.52021L-5 0V1.84534L3.40351 6.52021H6.71345ZM-1.87719 0L6.7193 4.78617V0H-1.87719ZM19.6608 6.52021L25 3.57938V6.52021H19.6608ZM13.2281 5.68834V0H23.4561L13.2281 5.68834Z" fill="#0052B4"/>
<path d="M11.8421 0H8.09941V8.12537H-5V11.8746H8.09941V20H11.8421V11.8746H24.9415V8.12537H11.8421V0Z" fill="#E01C21"/>
<path d="M13.2281 13.4739L25 19.9941V18.1488L16.5965 13.4739H13.2281ZM3.40351 13.4739L-5 18.1547V20L6.71345 13.4739H3.40351ZM6.71345 6.52021L-5 0V1.84534L3.40351 6.52021H6.71345ZM16.538 6.52021L25 1.84534V0L13.2281 6.52021H16.538Z" fill="#E01C21"/>
</g>
<defs>
<clipPath id="clip0_4139_16079">
<rect width="20" height="20" rx="10" fill="white"/>
</clipPath>
</defs>
</svg>
