<svg width="24" height="24" viewBox="0 0 24 24" fill="none" xmlns="http://www.w3.org/2000/svg">
<path fill-rule="evenodd" clip-rule="evenodd" d="M12 3C7.032 3 3 7.032 3 12C3 16.968 7.032 21 12 21C16.968 21 21 16.968 21 12C21 7.032 16.968 3 12 3ZM12 19.2C8.022 19.2 4.8 15.978 4.8 12C4.8 8.022 8.022 4.8 12 4.8C15.978 4.8 19.2 8.022 19.2 12C19.2 15.978 15.978 19.2 12 19.2ZM16.5 12C16.5 14.4853 14.4853 16.5 12 16.5C9.51472 16.5 7.5 14.4853 7.5 12C7.5 9.51472 9.51472 7.5 12 7.5C14.4853 7.5 16.5 9.51472 16.5 12Z" fill="#707070"/>
</svg>
