<svg width="24" height="24" viewBox="0 0 24 24" fill="none" xmlns="http://www.w3.org/2000/svg">
<path d="M2.5 20.5H8.5V22.5H2.5V20.5ZM22.5 22.5H16.5V20.5H22.5V22.5ZM12.5 19.5C13.61 19.5 14.5 20.39 14.5 21.5C14.5 22.6 13.61 23.5 12.5 23.5C11.4 23.5 10.5 22.6 10.5 21.5C10.5 20.39 11.4 19.5 12.5 19.5ZM4.5 8.5C4.5 4.08 8.08 0.5 12.5 0.5C16.92 0.5 20.5 4.08 20.5 8.5C20.5 12.1 18.12 15.14 14.85 16.15L12.5 18.5L10.15 16.15C6.88 15.14 4.5 12.1 4.5 8.5ZM6.5 8.5C6.5 11.81 9.19 14.5 12.5 14.5C15.81 14.5 18.5 11.81 18.5 8.5C18.5 5.19 15.81 2.5 12.5 2.5C9.19 2.5 6.5 5.19 6.5 8.5ZM13.5 9.5H8.5V8H12.7L14.5 5L15.76 5.82L13.5 9.5Z" fill="#707070"/>
</svg>
