<svg width="20" height="20" viewBox="0 0 20 20" fill="none" xmlns="http://www.w3.org/2000/svg">
<g clip-path="url(#clip0_4139_16075)">
<rect width="30" height="20" transform="translate(-5)" fill="white"/>
<path fill-rule="evenodd" clip-rule="evenodd" d="M-5 0H0.714286V5.33333H-5V0ZM3.57143 0H9.28571V5.33333H3.57143V0ZM-5 8H0.714286V13.3333H-5V8ZM3.57143 8H9.28571V13.3333H3.57143V8ZM9.28571 0H25V2.66667H9.28571V0ZM9.28571 5.33333H25V8H9.28571V5.33333Z" fill="#1A47B8"/>
<path fill-rule="evenodd" clip-rule="evenodd" d="M-5 10.6667H25V13.3334H-5V10.6667ZM0.714286 10.6667H3.57143V13.3334H0.714286V10.6667ZM-5 16H25V18.6667H-5V16Z" fill="#1A47B8"/>
</g>
<defs>
<clipPath id="clip0_4139_16075">
<rect width="20" height="20" rx="10" fill="white"/>
</clipPath>
</defs>
</svg>
