<svg width="24" height="24" viewBox="0 0 24 24" fill="none" xmlns="http://www.w3.org/2000/svg">
<path fill-rule="evenodd" clip-rule="evenodd" d="M5.11 7.37999L2 4.26999L3.41 2.85999L20.15 19.6L18.74 21.01L14.73 17H13V15.27L10.73 13H8V11H8.73L6.66 8.92999C5.11 9.09999 3.9 10.41 3.9 12C3.9 13.71 5.29 15.1 7 15.1H11V17H7C4.24 17 2 14.76 2 12C2 9.90999 3.29 8.11999 5.11 7.37999ZM17 6.99999H13V8.89999H17C18.71 8.89999 20.1 10.29 20.1 12C20.1 13.27 19.33 14.37 18.23 14.84L19.63 16.24C21.05 15.36 22 13.79 22 12C22 9.23999 19.76 6.99999 17 6.99999ZM14.39 11L16 12.61V11H14.39Z" fill="#707070"/>
</svg>
