<svg width="24" height="24" viewBox="0 0 24 24" fill="none" xmlns="http://www.w3.org/2000/svg">
<path d="M5.17333 6.22221C4.53333 6.22221 4 5.61615 4 4.88888C4 4.1616 4.53333 3.55554 5.17333 3.55554H18.8267C19.4667 3.55554 20 4.1616 20 4.88888C20 5.61615 19.4667 6.22221 18.8267 6.22221H5.17333Z" fill="#0AAC00"/>
<path d="M5.17333 13.3333C4.53333 13.3333 4 12.6984 4 12.0635C4 11.3016 4.53333 10.6667 5.17333 10.6667H13.6C14.1333 10.6667 14.6667 11.3016 14.6667 12.0635C14.6667 12.6984 14.1333 13.3333 13.6 13.3333H5.17333Z" fill="#F28A0D"/>
<path d="M5.16556 20.4444C4.5298 20.4444 4 19.8384 4 19.1111C4 18.3838 4.5298 17.7778 5.16556 17.7778H18.8344C19.4702 17.7778 20 18.3838 20 19.1111C20 19.8384 19.4702 20.4444 18.8344 20.4444H5.16556Z" fill="#0AAC00"/>
</svg>
