<svg width="24" height="24" viewBox="0 0 24 24" fill="none" xmlns="http://www.w3.org/2000/svg">
<path d="M12.3049 1.30499H4.30493C3.7745 1.30499 3.26579 1.51571 2.89072 1.89078C2.51565 2.26585 2.30493 2.77456 2.30493 3.30499V19.305C2.30493 19.8354 2.51565 20.3441 2.89072 20.7192C3.26579 21.0943 3.7745 21.305 4.30493 21.305H11.3049C10.8949 21.055 10.5049 20.745 10.1649 20.405C9.83493 20.075 9.55493 19.705 9.30493 19.305H4.30493V3.30499H11.3049V8.30499H16.3049V9.48499C17.0149 9.64499 17.6949 9.91499 18.3049 10.305V7.30499L12.3049 1.30499ZM18.6149 18.205C19.9449 16.095 19.3049 13.305 17.2149 11.985C15.1049 10.655 12.3049 11.305 10.9949 13.385C9.65493 15.495 10.3049 18.275 12.3949 19.605C13.8549 20.535 15.7149 20.535 17.1849 19.625L20.3049 22.695L21.6949 21.305L18.6149 18.205ZM14.8049 18.305C14.1419 18.305 13.506 18.0416 13.0372 17.5728C12.5683 17.1039 12.3049 16.468 12.3049 15.805C12.3049 15.142 12.5683 14.5061 13.0372 14.0372C13.506 13.5684 14.1419 13.305 14.8049 13.305C15.468 13.305 16.1039 13.5684 16.5727 14.0372C17.0415 14.5061 17.3049 15.142 17.3049 15.805C17.3049 16.468 17.0415 17.1039 16.5727 17.5728C16.1039 18.0416 15.468 18.305 14.8049 18.305Z" fill="#707070"/>
</svg>
