<svg width="24" height="24" viewBox="0 0 24 24" fill="none" xmlns="http://www.w3.org/2000/svg">
<path d="M18.3675 18.3675L17.175 19.56L16.3763 18.7613L17.5688 17.5688L15.3863 15.3863L14.1937 16.5787L13.395 15.78L14.5875 14.5875L12.405 12.405L11.2125 13.5975L10.4138 12.7987L11.6062 11.6062L9.4125 9.4125L8.22 10.605L7.42125 9.80625L8.61375 8.61375L6.43125 6.43125L5.23875 7.62375L4.44 6.825L5.6325 5.6325L3 3V18.75C3 19.9875 4.0125 21 5.25 21H21L18.3675 18.3675ZM6.375 17.625V11.145L12.855 17.625H6.375Z" fill="#707070"/>
</svg>
