<svg width="24" height="24" viewBox="0 0 24 24" fill="none" xmlns="http://www.w3.org/2000/svg">
<path d="M1.39001 18.36L3.16001 16.6L4.58001 18L5.64001 16.95L4.22001 15.54L5.64001 14.12L8.11001 16.6L9.17001 15.54L6.70001 13.06L8.11001 11.65L9.53001 13.06L10.59 12L9.17001 10.59L10.59 9.17001L13.06 11.65L14.12 10.59L11.65 8.11001L13.06 6.70001L14.47 8.11001L15.54 7.05001L14.12 5.64001L15.54 4.22001L18 6.70001L19.07 5.64001L16.6 3.16001L18.36 1.39001L22.61 5.64001L5.64001 22.61L1.39001 18.36Z" fill="#707070"/>
</svg>
