<svg width="163" height="14" viewBox="0 0 163 14" fill="none" xmlns="http://www.w3.org/2000/svg">
<path id="Navigation" d="M4.79883 0.69043V10.6436H3.09668V0.69043H4.79883ZM7.92285 0.69043V2.05762H0V0.69043H7.92285ZM10.8482 0.143555V10.6436H9.20762V0.143555H10.8482ZM10.5611 6.67188L10.0279 6.66504C10.0325 6.15462 10.1031 5.68294 10.2398 5.25C10.3811 4.81706 10.5771 4.44108 10.8277 4.12207C11.0829 3.7985 11.3883 3.55013 11.7437 3.37695C12.0992 3.19922 12.4934 3.11035 12.9264 3.11035C13.291 3.11035 13.6191 3.16048 13.9107 3.26074C14.207 3.361 14.4622 3.52279 14.6764 3.74609C14.8906 3.96484 15.0523 4.25195 15.1617 4.60742C15.2757 4.95833 15.3326 5.38672 15.3326 5.89258V10.6436H13.6783V5.87891C13.6783 5.52344 13.6259 5.24089 13.5211 5.03125C13.4208 4.82161 13.2727 4.67122 13.0768 4.58008C12.8808 4.48438 12.6415 4.43652 12.359 4.43652C12.0628 4.43652 11.8007 4.49577 11.5729 4.61426C11.3495 4.73275 11.1627 4.89453 11.0123 5.09961C10.8619 5.30469 10.748 5.54167 10.6705 5.81055C10.5976 6.07943 10.5611 6.36654 10.5611 6.67188ZM20.4113 10.7803C19.8645 10.7803 19.37 10.6914 18.9279 10.5137C18.4904 10.3314 18.1167 10.0785 17.8068 9.75488C17.5015 9.43132 17.2668 9.05078 17.1027 8.61328C16.9387 8.17578 16.8566 7.7041 16.8566 7.19824V6.9248C16.8566 6.34603 16.9409 5.82194 17.1096 5.35254C17.2782 4.88314 17.5129 4.4821 17.8137 4.14941C18.1145 3.81217 18.4699 3.55469 18.8801 3.37695C19.2902 3.19922 19.7346 3.11035 20.2131 3.11035C20.7417 3.11035 21.2043 3.19922 21.6008 3.37695C21.9973 3.55469 22.3254 3.80534 22.5852 4.12891C22.8495 4.44792 23.0454 4.82845 23.173 5.27051C23.3052 5.71257 23.3713 6.2002 23.3713 6.7334V7.4375H17.6564V6.25488H21.7443V6.125C21.7352 5.82878 21.676 5.55078 21.5666 5.29102C21.4618 5.03125 21.3 4.82161 21.0812 4.66211C20.8625 4.5026 20.5708 4.42285 20.2062 4.42285C19.9328 4.42285 19.689 4.4821 19.4748 4.60059C19.2652 4.71452 19.0897 4.88086 18.9484 5.09961C18.8072 5.31836 18.6978 5.58268 18.6203 5.89258C18.5474 6.19792 18.5109 6.54199 18.5109 6.9248V7.19824C18.5109 7.52181 18.5542 7.82259 18.6408 8.10059C18.732 8.37402 18.8641 8.61328 19.0373 8.81836C19.2105 9.02344 19.4201 9.18522 19.6662 9.30371C19.9123 9.41764 20.1926 9.47461 20.507 9.47461C20.9035 9.47461 21.2567 9.39486 21.5666 9.23535C21.8765 9.07585 22.1454 8.85026 22.3732 8.55859L23.2414 9.39941C23.0819 9.63184 22.8745 9.85514 22.6193 10.0693C22.3641 10.279 22.052 10.4499 21.6828 10.582C21.3182 10.7142 20.8944 10.7803 20.4113 10.7803ZM30.0902 4.75098V10.6436H28.4428V3.24707H29.9945L30.0902 4.75098ZM29.8236 6.67188L29.2631 6.66504C29.2631 6.15462 29.3269 5.68294 29.4545 5.25C29.5821 4.81706 29.7689 4.44108 30.015 4.12207C30.2611 3.7985 30.5665 3.55013 30.9311 3.37695C31.3002 3.19922 31.7263 3.11035 32.2094 3.11035C32.5466 3.11035 32.8542 3.16048 33.1322 3.26074C33.4148 3.35645 33.6586 3.50911 33.8637 3.71875C34.0733 3.92839 34.2328 4.19727 34.3422 4.52539C34.4561 4.85352 34.5131 5.25 34.5131 5.71484V10.6436H32.8656V5.8584C32.8656 5.49837 32.8109 5.21582 32.7016 5.01074C32.5967 4.80566 32.4441 4.65983 32.2436 4.57324C32.0476 4.4821 31.8129 4.43652 31.5395 4.43652C31.2296 4.43652 30.9652 4.49577 30.7465 4.61426C30.5323 4.73275 30.3568 4.89453 30.2201 5.09961C30.0834 5.30469 29.9831 5.54167 29.9193 5.81055C29.8555 6.07943 29.8236 6.36654 29.8236 6.67188ZM34.4105 6.23438L33.6381 6.40527C33.6381 5.95866 33.6996 5.53711 33.8227 5.14062C33.9503 4.73958 34.1348 4.38867 34.3764 4.08789C34.6225 3.78255 34.9255 3.54329 35.2855 3.37012C35.6456 3.19694 36.058 3.11035 36.5229 3.11035C36.9011 3.11035 37.2383 3.16276 37.5346 3.26758C37.8354 3.36784 38.0906 3.52734 38.3002 3.74609C38.5098 3.96484 38.6693 4.24967 38.7787 4.60059C38.8881 4.94694 38.9428 5.36621 38.9428 5.8584V10.6436H37.2885V5.85156C37.2885 5.47786 37.2338 5.18848 37.1244 4.9834C37.0196 4.77832 36.8692 4.63704 36.6732 4.55957C36.4773 4.47754 36.2426 4.43652 35.9691 4.43652C35.7139 4.43652 35.4883 4.48438 35.2924 4.58008C35.101 4.67122 34.9392 4.80111 34.807 4.96973C34.6749 5.13379 34.5746 5.32292 34.5063 5.53711C34.4424 5.7513 34.4105 5.98372 34.4105 6.23438ZM40.4736 7.02734V6.87012C40.4736 6.33691 40.5511 5.84245 40.7061 5.38672C40.861 4.92643 41.0843 4.52767 41.376 4.19043C41.6722 3.84863 42.0322 3.58431 42.4561 3.39746C42.8844 3.20605 43.3675 3.11035 43.9053 3.11035C44.4476 3.11035 44.9307 3.20605 45.3545 3.39746C45.7829 3.58431 46.1452 3.84863 46.4414 4.19043C46.7376 4.52767 46.9632 4.92643 47.1182 5.38672C47.2731 5.84245 47.3506 6.33691 47.3506 6.87012V7.02734C47.3506 7.56055 47.2731 8.05501 47.1182 8.51074C46.9632 8.96647 46.7376 9.36523 46.4414 9.70703C46.1452 10.0443 45.7852 10.3086 45.3613 10.5C44.9375 10.6868 44.4567 10.7803 43.9189 10.7803C43.3766 10.7803 42.8913 10.6868 42.4629 10.5C42.0391 10.3086 41.679 10.0443 41.3828 9.70703C41.0866 9.36523 40.861 8.96647 40.7061 8.51074C40.5511 8.05501 40.4736 7.56055 40.4736 7.02734ZM42.1211 6.87012V7.02734C42.1211 7.36003 42.1553 7.67448 42.2236 7.9707C42.292 8.26693 42.3991 8.52669 42.5449 8.75C42.6908 8.97331 42.8776 9.14876 43.1055 9.27637C43.3333 9.40397 43.6045 9.46777 43.9189 9.46777C44.2243 9.46777 44.4886 9.40397 44.7119 9.27637C44.9398 9.14876 45.1266 8.97331 45.2725 8.75C45.4183 8.52669 45.5254 8.26693 45.5938 7.9707C45.6667 7.67448 45.7031 7.36003 45.7031 7.02734V6.87012C45.7031 6.54199 45.6667 6.2321 45.5938 5.94043C45.5254 5.64421 45.416 5.38216 45.2656 5.1543C45.1198 4.92643 44.9329 4.7487 44.7051 4.62109C44.4818 4.48893 44.2152 4.42285 43.9053 4.42285C43.5954 4.42285 43.3265 4.48893 43.0986 4.62109C42.8753 4.7487 42.6908 4.92643 42.5449 5.1543C42.3991 5.38216 42.292 5.64421 42.2236 5.94043C42.1553 6.2321 42.1211 6.54199 42.1211 6.87012ZM53.0309 8.64062C53.0309 8.47656 52.9898 8.32845 52.9078 8.19629C52.8258 8.05957 52.6686 7.93652 52.4361 7.82715C52.2083 7.71777 51.871 7.61751 51.4244 7.52637C51.0325 7.43978 50.6725 7.33724 50.3443 7.21875C50.0208 7.0957 49.7428 6.94759 49.5104 6.77441C49.2779 6.60124 49.0979 6.39616 48.9703 6.15918C48.8427 5.9222 48.7789 5.64876 48.7789 5.33887C48.7789 5.03809 48.845 4.75326 48.9771 4.48438C49.1093 4.21549 49.2984 3.97852 49.5445 3.77344C49.7906 3.56836 50.0891 3.40658 50.44 3.28809C50.7955 3.1696 51.192 3.11035 51.6295 3.11035C52.2493 3.11035 52.7802 3.21517 53.2223 3.4248C53.6689 3.62988 54.0107 3.91016 54.2477 4.26562C54.4846 4.61654 54.6031 5.01302 54.6031 5.45508H52.9557C52.9557 5.25911 52.9055 5.07682 52.8053 4.9082C52.7096 4.73503 52.5637 4.59603 52.3678 4.49121C52.1718 4.38184 51.9257 4.32715 51.6295 4.32715C51.3469 4.32715 51.1122 4.37272 50.9254 4.46387C50.7431 4.55046 50.6064 4.66439 50.5152 4.80566C50.4286 4.94694 50.3854 5.10189 50.3854 5.27051C50.3854 5.39355 50.4081 5.50521 50.4537 5.60547C50.5038 5.70117 50.5859 5.79004 50.6998 5.87207C50.8137 5.94954 50.9687 6.02246 51.1646 6.09082C51.3652 6.15918 51.6158 6.22526 51.9166 6.28906C52.4817 6.40755 52.9671 6.56022 53.3727 6.74707C53.7828 6.92936 54.0973 7.16634 54.316 7.45801C54.5348 7.74512 54.6441 8.1097 54.6441 8.55176C54.6441 8.87988 54.5735 9.18066 54.4322 9.4541C54.2955 9.72298 54.095 9.95768 53.8307 10.1582C53.5663 10.3542 53.2496 10.5068 52.8805 10.6162C52.5159 10.7256 52.1057 10.7803 51.65 10.7803C50.9801 10.7803 50.4127 10.6618 49.9479 10.4248C49.483 10.1833 49.1298 9.87565 48.8883 9.50195C48.6513 9.1237 48.5328 8.73177 48.5328 8.32617H50.1256C50.1438 8.63151 50.2281 8.87533 50.3785 9.05762C50.5335 9.23535 50.7249 9.36523 50.9527 9.44727C51.1852 9.52474 51.4244 9.56348 51.6705 9.56348C51.9667 9.56348 52.2151 9.52474 52.4156 9.44727C52.6161 9.36523 52.7688 9.25586 52.8736 9.11914C52.9785 8.97786 53.0309 8.81836 53.0309 8.64062ZM59.6271 3.24707V4.4502H55.4572V3.24707H59.6271ZM56.6604 1.43555H58.3078V8.59961C58.3078 8.82747 58.3397 9.00293 58.4035 9.12598C58.4719 9.24447 58.5653 9.32422 58.6838 9.36523C58.8023 9.40625 58.9413 9.42676 59.1008 9.42676C59.2147 9.42676 59.3241 9.41992 59.4289 9.40625C59.5337 9.39258 59.618 9.37891 59.6818 9.36523L59.6887 10.623C59.552 10.6641 59.3924 10.7005 59.2102 10.7324C59.0324 10.7643 58.8273 10.7803 58.5949 10.7803C58.2167 10.7803 57.8817 10.7142 57.59 10.582C57.2984 10.4453 57.0705 10.2243 56.9064 9.91895C56.7424 9.61361 56.6604 9.20801 56.6604 8.70215V1.43555ZM66.9135 10.6436H65.266V2.53613C65.266 1.9847 65.3686 1.52214 65.5736 1.14844C65.7833 0.770182 66.0818 0.485352 66.4691 0.293945C66.8565 0.0979818 67.3145 0 67.8432 0C68.0072 0 68.169 0.0113932 68.3285 0.0341797C68.488 0.0524089 68.643 0.0820312 68.7934 0.123047L68.7523 1.39453C68.6612 1.37174 68.5609 1.35579 68.4516 1.34668C68.3467 1.33757 68.2328 1.33301 68.1098 1.33301C67.8591 1.33301 67.6426 1.38086 67.4604 1.47656C67.2826 1.56771 67.1459 1.70215 67.0502 1.87988C66.959 2.05762 66.9135 2.27637 66.9135 2.53613V10.6436ZM68.4379 3.24707V4.4502H64.1312V3.24707H68.4379ZM71.4385 4.65527V10.6436H69.791V3.24707H71.3633L71.4385 4.65527ZM73.7012 3.19922L73.6875 4.73047C73.5872 4.71224 73.4779 4.69857 73.3594 4.68945C73.2454 4.68034 73.1315 4.67578 73.0176 4.67578C72.735 4.67578 72.4867 4.7168 72.2725 4.79883C72.0583 4.8763 71.8783 4.99023 71.7324 5.14062C71.5911 5.28646 71.4818 5.46419 71.4043 5.67383C71.3268 5.88346 71.2812 6.11816 71.2676 6.37793L70.8916 6.40527C70.8916 5.94043 70.9372 5.50977 71.0283 5.11328C71.1195 4.7168 71.2562 4.36816 71.4385 4.06738C71.6253 3.7666 71.8577 3.5319 72.1357 3.36328C72.4183 3.19466 72.7441 3.11035 73.1133 3.11035C73.2135 3.11035 73.3206 3.11947 73.4346 3.1377C73.5531 3.15592 73.6419 3.17643 73.7012 3.19922ZM78.0074 10.7803C77.4605 10.7803 76.9661 10.6914 76.524 10.5137C76.0865 10.3314 75.7128 10.0785 75.4029 9.75488C75.0976 9.43132 74.8629 9.05078 74.6988 8.61328C74.5348 8.17578 74.4527 7.7041 74.4527 7.19824V6.9248C74.4527 6.34603 74.537 5.82194 74.7057 5.35254C74.8743 4.88314 75.109 4.4821 75.4098 4.14941C75.7105 3.81217 76.066 3.55469 76.4762 3.37695C76.8863 3.19922 77.3307 3.11035 77.8092 3.11035C78.3378 3.11035 78.8004 3.19922 79.1969 3.37695C79.5934 3.55469 79.9215 3.80534 80.1813 4.12891C80.4456 4.44792 80.6415 4.82845 80.7691 5.27051C80.9013 5.71257 80.9674 6.2002 80.9674 6.7334V7.4375H75.2525V6.25488H79.3404V6.125C79.3313 5.82878 79.2721 5.55078 79.1627 5.29102C79.0579 5.03125 78.8961 4.82161 78.6773 4.66211C78.4586 4.5026 78.1669 4.42285 77.8023 4.42285C77.5289 4.42285 77.2851 4.4821 77.0709 4.60059C76.8613 4.71452 76.6858 4.88086 76.5445 5.09961C76.4033 5.31836 76.2939 5.58268 76.2164 5.89258C76.1435 6.19792 76.107 6.54199 76.107 6.9248V7.19824C76.107 7.52181 76.1503 7.82259 76.2369 8.10059C76.3281 8.37402 76.4602 8.61328 76.6334 8.81836C76.8066 9.02344 77.0162 9.18522 77.2623 9.30371C77.5084 9.41764 77.7887 9.47461 78.1031 9.47461C78.4996 9.47461 78.8528 9.39486 79.1627 9.23535C79.4726 9.07585 79.7415 8.85026 79.9693 8.55859L80.8375 9.39941C80.678 9.63184 80.4706 9.85514 80.2154 10.0693C79.9602 10.279 79.648 10.4499 79.2789 10.582C78.9143 10.7142 78.4905 10.7803 78.0074 10.7803ZM86.9074 13.4873V4.7168L87.0988 3.24707H88.5686V13.4873H86.9074ZM82.1018 7.02051V6.87695C82.1018 6.31641 82.1656 5.80599 82.2932 5.3457C82.4208 4.88086 82.6099 4.4821 82.8605 4.14941C83.1112 3.81673 83.4165 3.56152 83.7766 3.38379C84.1366 3.2015 84.5513 3.11035 85.0207 3.11035C85.4764 3.11035 85.8729 3.19694 86.2102 3.37012C86.552 3.54329 86.8391 3.79167 87.0715 4.11523C87.3085 4.43424 87.4976 4.81478 87.6389 5.25684C87.7801 5.69889 87.8827 6.19108 87.9465 6.7334V7.19141C87.8872 7.72005 87.787 8.20312 87.6457 8.64062C87.5044 9.07812 87.3153 9.45638 87.0783 9.77539C86.8413 10.0944 86.552 10.3428 86.2102 10.5205C85.8684 10.6937 85.4673 10.7803 85.007 10.7803C84.5467 10.7803 84.1366 10.6868 83.7766 10.5C83.4165 10.3132 83.1112 10.0511 82.8605 9.71387C82.6145 9.37207 82.4253 8.97331 82.2932 8.51758C82.1656 8.05729 82.1018 7.55827 82.1018 7.02051ZM83.7492 6.87695V7.02051C83.7492 7.35775 83.7788 7.67448 83.8381 7.9707C83.9019 8.26237 84.0022 8.52214 84.1389 8.75C84.2756 8.97331 84.4488 9.14876 84.6584 9.27637C84.868 9.40397 85.121 9.46777 85.4172 9.46777C85.8046 9.46777 86.1213 9.38346 86.3674 9.21484C86.618 9.04622 86.8094 8.82064 86.9416 8.53809C87.0783 8.25098 87.174 7.93424 87.2287 7.58789V6.35059C87.1968 6.08171 87.1398 5.83105 87.0578 5.59863C86.9758 5.36165 86.8619 5.15658 86.716 4.9834C86.5747 4.80566 86.397 4.66895 86.1828 4.57324C85.9732 4.47298 85.7225 4.42285 85.4309 4.42285C85.1346 4.42285 84.8794 4.48665 84.6652 4.61426C84.451 4.74186 84.2756 4.9196 84.1389 5.14746C84.0067 5.37077 83.9087 5.63053 83.8449 5.92676C83.7811 6.22298 83.7492 6.53971 83.7492 6.87695ZM94.9324 8.90039V3.24707H96.5867V10.6436H95.0281L94.9324 8.90039ZM95.1648 7.3623L95.7186 7.34863C95.7186 7.84538 95.6639 8.30339 95.5545 8.72266C95.4451 9.13737 95.2765 9.49967 95.0486 9.80957C94.8208 10.1149 94.5291 10.3542 94.1736 10.5273C93.8182 10.696 93.3921 10.7803 92.8953 10.7803C92.5353 10.7803 92.2049 10.7279 91.9041 10.623C91.6033 10.5182 91.3436 10.3564 91.1248 10.1377C90.9106 9.91895 90.7443 9.63411 90.6258 9.2832C90.5073 8.93229 90.448 8.51302 90.448 8.02539V3.24707H92.0955V8.03906C92.0955 8.30794 92.1274 8.53353 92.1912 8.71582C92.255 8.89355 92.3416 9.03711 92.451 9.14648C92.5603 9.25586 92.688 9.33333 92.8338 9.37891C92.9796 9.42448 93.1346 9.44727 93.2986 9.44727C93.768 9.44727 94.1372 9.35612 94.4061 9.17383C94.6795 8.98698 94.8732 8.73633 94.9871 8.42188C95.1056 8.10742 95.1648 7.75423 95.1648 7.3623ZM101.686 10.7803C101.139 10.7803 100.645 10.6914 100.203 10.5137C99.765 10.3314 99.3913 10.0785 99.0814 9.75488C98.7761 9.43132 98.5414 9.05078 98.3773 8.61328C98.2133 8.17578 98.1312 7.7041 98.1312 7.19824V6.9248C98.1312 6.34603 98.2156 5.82194 98.3842 5.35254C98.5528 4.88314 98.7875 4.4821 99.0883 4.14941C99.3891 3.81217 99.7445 3.55469 100.155 3.37695C100.565 3.19922 101.009 3.11035 101.488 3.11035C102.016 3.11035 102.479 3.19922 102.875 3.37695C103.272 3.55469 103.6 3.80534 103.86 4.12891C104.124 4.44792 104.32 4.82845 104.448 5.27051C104.58 5.71257 104.646 6.2002 104.646 6.7334V7.4375H98.9311V6.25488H103.019V6.125C103.01 5.82878 102.951 5.55078 102.841 5.29102C102.736 5.03125 102.575 4.82161 102.356 4.66211C102.137 4.5026 101.845 4.42285 101.481 4.42285C101.207 4.42285 100.964 4.4821 100.749 4.60059C100.54 4.71452 100.364 4.88086 100.223 5.09961C100.082 5.31836 99.9724 5.58268 99.8949 5.89258C99.822 6.19792 99.7855 6.54199 99.7855 6.9248V7.19824C99.7855 7.52181 99.8288 7.82259 99.9154 8.10059C100.007 8.37402 100.139 8.61328 100.312 8.81836C100.485 9.02344 100.695 9.18522 100.941 9.30371C101.187 9.41764 101.467 9.47461 101.782 9.47461C102.178 9.47461 102.531 9.39486 102.841 9.23535C103.151 9.07585 103.42 8.85026 103.648 8.55859L104.516 9.39941C104.357 9.63184 104.149 9.85514 103.894 10.0693C103.639 10.279 103.327 10.4499 102.957 10.582C102.593 10.7142 102.169 10.7803 101.686 10.7803ZM107.715 4.82617V10.6436H106.067V3.24707H107.619L107.715 4.82617ZM107.421 6.67188L106.888 6.66504C106.892 6.14095 106.965 5.66016 107.106 5.22266C107.252 4.78516 107.453 4.40918 107.708 4.09473C107.968 3.78027 108.278 3.53874 108.638 3.37012C108.998 3.19694 109.399 3.11035 109.841 3.11035C110.196 3.11035 110.518 3.16048 110.805 3.26074C111.096 3.35645 111.345 3.51367 111.55 3.73242C111.759 3.95117 111.919 4.236 112.028 4.58691C112.138 4.93327 112.192 5.35938 112.192 5.86523V10.6436H110.538V5.8584C110.538 5.50293 110.486 5.22266 110.381 5.01758C110.281 4.80794 110.132 4.65983 109.937 4.57324C109.745 4.4821 109.506 4.43652 109.219 4.43652C108.936 4.43652 108.683 4.49577 108.46 4.61426C108.237 4.73275 108.048 4.89453 107.893 5.09961C107.742 5.30469 107.626 5.54167 107.544 5.81055C107.462 6.07943 107.421 6.36654 107.421 6.67188ZM117.415 3.24707V4.4502H113.245V3.24707H117.415ZM114.448 1.43555H116.095V8.59961C116.095 8.82747 116.127 9.00293 116.191 9.12598C116.259 9.24447 116.353 9.32422 116.471 9.36523C116.59 9.40625 116.729 9.42676 116.888 9.42676C117.002 9.42676 117.112 9.41992 117.216 9.40625C117.321 9.39258 117.406 9.37891 117.469 9.36523L117.476 10.623C117.339 10.6641 117.18 10.7005 116.998 10.7324C116.82 10.7643 116.615 10.7803 116.382 10.7803C116.004 10.7803 115.669 10.7142 115.378 10.582C115.086 10.4453 114.858 10.2243 114.694 9.91895C114.53 9.61361 114.448 9.20801 114.448 8.70215V1.43555ZM120.6 0.143555V10.6436H118.946V0.143555H120.6ZM124.701 9.83691L126.711 3.24707H128.474L125.508 11.7715C125.439 11.9538 125.35 12.152 125.241 12.3662C125.132 12.5804 124.988 12.7832 124.81 12.9746C124.637 13.1706 124.421 13.3278 124.161 13.4463C123.901 13.5693 123.587 13.6309 123.218 13.6309C123.072 13.6309 122.93 13.6172 122.794 13.5898C122.662 13.5671 122.536 13.542 122.418 13.5146L122.411 12.2568C122.457 12.2614 122.511 12.266 122.575 12.2705C122.643 12.2751 122.698 12.2773 122.739 12.2773C123.012 12.2773 123.24 12.2432 123.423 12.1748C123.605 12.111 123.753 12.0062 123.867 11.8604C123.985 11.7145 124.086 11.5186 124.168 11.2725L124.701 9.83691ZM123.566 3.24707L125.323 8.78418L125.617 10.5205L124.475 10.8145L121.789 3.24707H123.566ZM137.654 8.90039V3.24707H139.309V10.6436H137.75L137.654 8.90039ZM137.887 7.3623L138.44 7.34863C138.44 7.84538 138.386 8.30339 138.276 8.72266C138.167 9.13737 137.998 9.49967 137.771 9.80957C137.543 10.1149 137.251 10.3542 136.896 10.5273C136.54 10.696 136.114 10.7803 135.617 10.7803C135.257 10.7803 134.927 10.7279 134.626 10.623C134.325 10.5182 134.065 10.3564 133.847 10.1377C133.632 9.91895 133.466 9.63411 133.348 9.2832C133.229 8.93229 133.17 8.51302 133.17 8.02539V3.24707H134.817V8.03906C134.817 8.30794 134.849 8.53353 134.913 8.71582C134.977 8.89355 135.063 9.03711 135.173 9.14648C135.282 9.25586 135.41 9.33333 135.556 9.37891C135.701 9.42448 135.856 9.44727 136.021 9.44727C136.49 9.44727 136.859 9.35612 137.128 9.17383C137.401 8.98698 137.595 8.73633 137.709 8.42188C137.827 8.10742 137.887 7.75423 137.887 7.3623ZM145.296 8.64062C145.296 8.47656 145.255 8.32845 145.173 8.19629C145.091 8.05957 144.934 7.93652 144.702 7.82715C144.474 7.71777 144.137 7.61751 143.69 7.52637C143.298 7.43978 142.938 7.33724 142.61 7.21875C142.286 7.0957 142.008 6.94759 141.776 6.77441C141.544 6.60124 141.364 6.39616 141.236 6.15918C141.108 5.9222 141.045 5.64876 141.045 5.33887C141.045 5.03809 141.111 4.75326 141.243 4.48438C141.375 4.21549 141.564 3.97852 141.81 3.77344C142.056 3.56836 142.355 3.40658 142.706 3.28809C143.061 3.1696 143.458 3.11035 143.895 3.11035C144.515 3.11035 145.046 3.21517 145.488 3.4248C145.934 3.62988 146.276 3.91016 146.513 4.26562C146.75 4.61654 146.869 5.01302 146.869 5.45508H145.221C145.221 5.25911 145.171 5.07682 145.071 4.9082C144.975 4.73503 144.829 4.59603 144.633 4.49121C144.437 4.38184 144.191 4.32715 143.895 4.32715C143.613 4.32715 143.378 4.37272 143.191 4.46387C143.009 4.55046 142.872 4.66439 142.781 4.80566C142.694 4.94694 142.651 5.10189 142.651 5.27051C142.651 5.39355 142.674 5.50521 142.719 5.60547C142.769 5.70117 142.851 5.79004 142.965 5.87207C143.079 5.94954 143.234 6.02246 143.43 6.09082C143.631 6.15918 143.881 6.22526 144.182 6.28906C144.747 6.40755 145.233 6.56022 145.638 6.74707C146.048 6.92936 146.363 7.16634 146.582 7.45801C146.8 7.74512 146.91 8.1097 146.91 8.55176C146.91 8.87988 146.839 9.18066 146.698 9.4541C146.561 9.72298 146.361 9.95768 146.096 10.1582C145.832 10.3542 145.515 10.5068 145.146 10.6162C144.782 10.7256 144.371 10.7803 143.916 10.7803C143.246 10.7803 142.678 10.6618 142.213 10.4248C141.749 10.1833 141.395 9.87565 141.154 9.50195C140.917 9.1237 140.798 8.73177 140.798 8.32617H142.391C142.409 8.63151 142.494 8.87533 142.644 9.05762C142.799 9.23535 142.99 9.36523 143.218 9.44727C143.451 9.52474 143.69 9.56348 143.936 9.56348C144.232 9.56348 144.481 9.52474 144.681 9.44727C144.882 9.36523 145.034 9.25586 145.139 9.11914C145.244 8.97786 145.296 8.81836 145.296 8.64062ZM151.763 10.7803C151.216 10.7803 150.722 10.6914 150.279 10.5137C149.842 10.3314 149.468 10.0785 149.158 9.75488C148.853 9.43132 148.618 9.05078 148.454 8.61328C148.29 8.17578 148.208 7.7041 148.208 7.19824V6.9248C148.208 6.34603 148.293 5.82194 148.461 5.35254C148.63 4.88314 148.864 4.4821 149.165 4.14941C149.466 3.81217 149.821 3.55469 150.232 3.37695C150.642 3.19922 151.086 3.11035 151.565 3.11035C152.093 3.11035 152.556 3.19922 152.952 3.37695C153.349 3.55469 153.677 3.80534 153.937 4.12891C154.201 4.44792 154.397 4.82845 154.525 5.27051C154.657 5.71257 154.723 6.2002 154.723 6.7334V7.4375H149.008V6.25488H153.096V6.125C153.087 5.82878 153.028 5.55078 152.918 5.29102C152.813 5.03125 152.652 4.82161 152.433 4.66211C152.214 4.5026 151.922 4.42285 151.558 4.42285C151.284 4.42285 151.041 4.4821 150.826 4.60059C150.617 4.71452 150.441 4.88086 150.3 5.09961C150.159 5.31836 150.049 5.58268 149.972 5.89258C149.899 6.19792 149.863 6.54199 149.863 6.9248V7.19824C149.863 7.52181 149.906 7.82259 149.992 8.10059C150.084 8.37402 150.216 8.61328 150.389 8.81836C150.562 9.02344 150.772 9.18522 151.018 9.30371C151.264 9.41764 151.544 9.47461 151.859 9.47461C152.255 9.47461 152.608 9.39486 152.918 9.23535C153.228 9.07585 153.497 8.85026 153.725 8.55859L154.593 9.39941C154.433 9.63184 154.226 9.85514 153.971 10.0693C153.716 10.279 153.404 10.4499 153.034 10.582C152.67 10.7142 152.246 10.7803 151.763 10.7803ZM160.67 9.1123V0.143555H162.324V10.6436H160.827L160.67 9.1123ZM155.857 7.02734V6.88379C155.857 6.32324 155.923 5.81283 156.055 5.35254C156.188 4.8877 156.379 4.48893 156.63 4.15625C156.88 3.81901 157.186 3.56152 157.546 3.38379C157.906 3.2015 158.311 3.11035 158.762 3.11035C159.209 3.11035 159.601 3.19694 159.938 3.37012C160.276 3.54329 160.563 3.79167 160.8 4.11523C161.037 4.43424 161.226 4.81706 161.367 5.26367C161.508 5.70573 161.609 6.19792 161.668 6.74023V7.19824C161.609 7.72689 161.508 8.20996 161.367 8.64746C161.226 9.08496 161.037 9.46322 160.8 9.78223C160.563 10.1012 160.273 10.3473 159.931 10.5205C159.594 10.6937 159.2 10.7803 158.749 10.7803C158.302 10.7803 157.899 10.6868 157.539 10.5C157.183 10.3132 156.88 10.0511 156.63 9.71387C156.379 9.37663 156.188 8.98014 156.055 8.52441C155.923 8.06413 155.857 7.5651 155.857 7.02734ZM157.505 6.88379V7.02734C157.505 7.36458 157.534 7.67904 157.594 7.9707C157.657 8.26237 157.755 8.51986 157.887 8.74316C158.02 8.96191 158.191 9.13509 158.4 9.2627C158.614 9.38574 158.87 9.44727 159.166 9.44727C159.54 9.44727 159.847 9.36523 160.089 9.20117C160.33 9.03711 160.519 8.81608 160.656 8.53809C160.797 8.25553 160.893 7.94108 160.943 7.59473V6.35742C160.916 6.08854 160.859 5.83789 160.772 5.60547C160.69 5.37305 160.579 5.17025 160.437 4.99707C160.296 4.81934 160.121 4.68262 159.911 4.58691C159.706 4.48665 159.462 4.43652 159.179 4.43652C158.879 4.43652 158.623 4.50033 158.414 4.62793C158.204 4.75553 158.031 4.93099 157.894 5.1543C157.762 5.3776 157.664 5.63737 157.6 5.93359C157.537 6.22982 157.505 6.54655 157.505 6.88379Z" fill="#212121"/>
</svg>
