<svg width="66" height="11" viewBox="0 0 66 11" fill="none" xmlns="http://www.w3.org/2000/svg">
<path id="Navigation" d="M7.89551 0V9.95312H6.17969L1.71582 2.82324V9.95312H0V0H1.71582L6.19336 7.14355V0H7.89551ZM13.1861 10.0898C12.6393 10.0898 12.1448 10.001 11.7027 9.82324C11.2652 9.64095 10.8915 9.38802 10.5816 9.06445C10.2763 8.74089 10.0416 8.36035 9.87754 7.92285C9.71348 7.48535 9.63144 7.01367 9.63144 6.50781V6.23438C9.63144 5.6556 9.71575 5.13151 9.88437 4.66211C10.053 4.19271 10.2877 3.79167 10.5885 3.45898C10.8893 3.12174 11.2447 2.86426 11.6549 2.68652C12.065 2.50879 12.5094 2.41992 12.9879 2.41992C13.5165 2.41992 13.9791 2.50879 14.3756 2.68652C14.7721 2.86426 15.1002 3.11491 15.36 3.43848C15.6243 3.75749 15.8202 4.13802 15.9479 4.58008C16.08 5.02214 16.1461 5.50977 16.1461 6.04297V6.74707H10.4312V5.56445H14.5191V5.43457C14.51 5.13835 14.4508 4.86035 14.3414 4.60059C14.2366 4.34082 14.0748 4.13118 13.8561 3.97168C13.6373 3.81217 13.3456 3.73242 12.9811 3.73242C12.7076 3.73242 12.4638 3.79167 12.2496 3.91016C12.04 4.02409 11.8645 4.19043 11.7232 4.40918C11.582 4.62793 11.4726 4.89225 11.3951 5.20215C11.3222 5.50749 11.2857 5.85156 11.2857 6.23438V6.50781C11.2857 6.83138 11.329 7.13216 11.4156 7.41016C11.5068 7.68359 11.6389 7.92285 11.8121 8.12793C11.9853 8.33301 12.1949 8.49479 12.441 8.61328C12.6871 8.72721 12.9674 8.78418 13.2818 8.78418C13.6783 8.78418 14.0315 8.70443 14.3414 8.54492C14.6513 8.38542 14.9202 8.15983 15.148 7.86816L16.0162 8.70898C15.8567 8.94141 15.6493 9.16471 15.3941 9.37891C15.1389 9.58854 14.8268 9.75944 14.4576 9.8916C14.093 10.0238 13.6692 10.0898 13.1861 10.0898ZM19.591 8.3125L21.3 2.55664H22.3527L22.0656 4.2793L20.343 9.95312H19.3996L19.591 8.3125ZM18.5861 2.55664L19.9191 8.33984L20.0285 9.95312H18.9758L16.9729 2.55664H18.5861ZM23.9523 8.27148L25.2443 2.55664H26.8508L24.8547 9.95312H23.802L23.9523 8.27148ZM22.5305 2.55664L24.2189 8.24414L24.4309 9.95312H23.4875L21.7443 4.27246L21.4572 2.55664H22.5305ZM33.7543 0V9.95312H32.0385V0H33.7543ZM38.8945 8.77734C39.1634 8.77734 39.4049 8.72493 39.6191 8.62012C39.8379 8.51074 40.0133 8.36035 40.1455 8.16895C40.2822 7.97754 40.3574 7.75651 40.3711 7.50586H41.9229C41.9137 7.98438 41.7725 8.4196 41.499 8.81152C41.2256 9.20345 40.8633 9.51562 40.4121 9.74805C39.9609 9.97591 39.4619 10.0898 38.915 10.0898C38.3499 10.0898 37.8577 9.99414 37.4385 9.80273C37.0192 9.60677 36.6706 9.33789 36.3926 8.99609C36.1146 8.6543 35.9049 8.26009 35.7637 7.81348C35.627 7.36686 35.5586 6.88835 35.5586 6.37793V6.13867C35.5586 5.62826 35.627 5.14974 35.7637 4.70312C35.9049 4.25195 36.1146 3.85547 36.3926 3.51367C36.6706 3.17188 37.0192 2.90527 37.4385 2.71387C37.8577 2.5179 38.3477 2.41992 38.9082 2.41992C39.5007 2.41992 40.0202 2.53841 40.4668 2.77539C40.9134 3.00781 41.2643 3.33366 41.5195 3.75293C41.7793 4.16764 41.9137 4.65072 41.9229 5.20215H40.3711C40.3574 4.92871 40.2891 4.68262 40.166 4.46387C40.0475 4.24056 39.8789 4.06283 39.6602 3.93066C39.446 3.7985 39.1885 3.73242 38.8877 3.73242C38.555 3.73242 38.2793 3.80078 38.0605 3.9375C37.8418 4.06966 37.6709 4.25195 37.5479 4.48438C37.4248 4.71224 37.3359 4.96973 37.2812 5.25684C37.2311 5.53939 37.2061 5.83333 37.2061 6.13867V6.37793C37.2061 6.68327 37.2311 6.97949 37.2812 7.2666C37.3314 7.55371 37.418 7.8112 37.541 8.03906C37.6686 8.26237 37.8418 8.44238 38.0605 8.5791C38.2793 8.71126 38.5573 8.77734 38.8945 8.77734ZM43.023 6.33691V6.17969C43.023 5.64648 43.1005 5.15202 43.2555 4.69629C43.4104 4.236 43.6337 3.83724 43.9254 3.5C44.2216 3.1582 44.5816 2.89388 45.0055 2.70703C45.4339 2.51562 45.9169 2.41992 46.4547 2.41992C46.997 2.41992 47.4801 2.51562 47.9039 2.70703C48.3323 2.89388 48.6946 3.1582 48.9908 3.5C49.287 3.83724 49.5126 4.236 49.6676 4.69629C49.8225 5.15202 49.9 5.64648 49.9 6.17969V6.33691C49.9 6.87012 49.8225 7.36458 49.6676 7.82031C49.5126 8.27604 49.287 8.6748 48.9908 9.0166C48.6946 9.35384 48.3346 9.61816 47.9107 9.80957C47.4869 9.99642 47.0061 10.0898 46.4684 10.0898C45.926 10.0898 45.4407 9.99642 45.0123 9.80957C44.5885 9.61816 44.2285 9.35384 43.9322 9.0166C43.636 8.6748 43.4104 8.27604 43.2555 7.82031C43.1005 7.36458 43.023 6.87012 43.023 6.33691ZM44.6705 6.17969V6.33691C44.6705 6.6696 44.7047 6.98405 44.773 7.28027C44.8414 7.5765 44.9485 7.83626 45.0943 8.05957C45.2402 8.28288 45.427 8.45833 45.6549 8.58594C45.8827 8.71354 46.1539 8.77734 46.4684 8.77734C46.7737 8.77734 47.038 8.71354 47.2613 8.58594C47.4892 8.45833 47.676 8.28288 47.8219 8.05957C47.9677 7.83626 48.0748 7.5765 48.1432 7.28027C48.2161 6.98405 48.2525 6.6696 48.2525 6.33691V6.17969C48.2525 5.85156 48.2161 5.54167 48.1432 5.25C48.0748 4.95378 47.9654 4.69173 47.815 4.46387C47.6692 4.236 47.4824 4.05827 47.2545 3.93066C47.0312 3.7985 46.7646 3.73242 46.4547 3.73242C46.1448 3.73242 45.8759 3.7985 45.648 3.93066C45.4247 4.05827 45.2402 4.236 45.0943 4.46387C44.9485 4.69173 44.8414 4.95378 44.773 5.25C44.7047 5.54167 44.6705 5.85156 44.6705 6.17969ZM53.0646 4.13574V9.95312H51.4172V2.55664H52.9689L53.0646 4.13574ZM52.7707 5.98145L52.2375 5.97461C52.2421 5.45052 52.315 4.96973 52.4562 4.53223C52.6021 4.09473 52.8026 3.71875 53.0578 3.4043C53.3176 3.08984 53.6275 2.84831 53.9875 2.67969C54.3475 2.50651 54.7486 2.41992 55.1906 2.41992C55.5461 2.41992 55.8674 2.47005 56.1545 2.57031C56.4462 2.66602 56.6945 2.82324 56.8996 3.04199C57.1092 3.26074 57.2687 3.54557 57.3781 3.89648C57.4875 4.24284 57.5422 4.66895 57.5422 5.1748V9.95312H55.8879V5.16797C55.8879 4.8125 55.8355 4.53223 55.7307 4.32715C55.6304 4.11751 55.4823 3.9694 55.2863 3.88281C55.0949 3.79167 54.8557 3.74609 54.5686 3.74609C54.286 3.74609 54.0331 3.80534 53.8098 3.92383C53.5865 4.04232 53.3973 4.2041 53.2424 4.40918C53.092 4.61426 52.9758 4.85124 52.8937 5.12012C52.8117 5.389 52.7707 5.67611 52.7707 5.98145ZM63.5232 7.9502C63.5232 7.78613 63.4822 7.63802 63.4002 7.50586C63.3182 7.36914 63.1609 7.24609 62.9285 7.13672C62.7007 7.02734 62.3634 6.92708 61.9168 6.83594C61.5249 6.74935 61.1648 6.64681 60.8367 6.52832C60.5132 6.40527 60.2352 6.25716 60.0027 6.08398C59.7703 5.91081 59.5903 5.70573 59.4627 5.46875C59.3351 5.23177 59.2713 4.95833 59.2713 4.64844C59.2713 4.34766 59.3374 4.06283 59.4695 3.79395C59.6017 3.52507 59.7908 3.28809 60.0369 3.08301C60.283 2.87793 60.5815 2.71615 60.9324 2.59766C61.2879 2.47917 61.6844 2.41992 62.1219 2.41992C62.7417 2.41992 63.2726 2.52474 63.7146 2.73438C64.1613 2.93945 64.5031 3.21973 64.74 3.5752C64.977 3.92611 65.0955 4.32259 65.0955 4.76465H63.448C63.448 4.56868 63.3979 4.38639 63.2977 4.21777C63.202 4.0446 63.0561 3.9056 62.8602 3.80078C62.6642 3.69141 62.4181 3.63672 62.1219 3.63672C61.8393 3.63672 61.6046 3.68229 61.4178 3.77344C61.2355 3.86003 61.0988 3.97396 61.0076 4.11523C60.921 4.25651 60.8777 4.41146 60.8777 4.58008C60.8777 4.70312 60.9005 4.81478 60.9461 4.91504C60.9962 5.01074 61.0783 5.09961 61.1922 5.18164C61.3061 5.25911 61.4611 5.33203 61.657 5.40039C61.8576 5.46875 62.1082 5.53483 62.409 5.59863C62.9741 5.71712 63.4594 5.86979 63.865 6.05664C64.2752 6.23893 64.5896 6.47591 64.8084 6.76758C65.0271 7.05469 65.1365 7.41927 65.1365 7.86133C65.1365 8.18945 65.0659 8.49023 64.9246 8.76367C64.7879 9.03255 64.5874 9.26725 64.323 9.46777C64.0587 9.66374 63.742 9.81641 63.3729 9.92578C63.0083 10.0352 62.5981 10.0898 62.1424 10.0898C61.4725 10.0898 60.9051 9.97135 60.4402 9.73438C59.9754 9.49284 59.6222 9.18522 59.3807 8.81152C59.1437 8.43327 59.0252 8.04134 59.0252 7.63574H60.618C60.6362 7.94108 60.7205 8.1849 60.8709 8.36719C61.0258 8.54492 61.2173 8.6748 61.4451 8.75684C61.6775 8.83431 61.9168 8.87305 62.1629 8.87305C62.4591 8.87305 62.7075 8.83431 62.908 8.75684C63.1085 8.6748 63.2612 8.56543 63.366 8.42871C63.4708 8.28743 63.5232 8.12793 63.5232 7.9502Z" fill="#212121"/>
</svg>
