<svg width="120" height="32" viewBox="0 0 120 32" fill="none" xmlns="http://www.w3.org/2000/svg">
<rect x="0.5" y="0.5" width="119" height="31" rx="4.5" stroke="#9747FF" stroke-dasharray="10 5"/>
<circle cx="16" cy="16.5" r="9.5" fill="white" stroke="#212121"/>
<path d="M15.3379 20.5H9.72461V19.6855L12.0156 17.3594C12.4414 16.9297 12.7988 16.5469 13.0879 16.2109C13.3809 15.875 13.6035 15.5449 13.7559 15.2207C13.9082 14.8926 13.9844 14.5332 13.9844 14.1426C13.9844 13.6582 13.8398 13.2891 13.5508 13.0352C13.2656 12.7773 12.8887 12.6484 12.4199 12.6484C12.0098 12.6484 11.6465 12.7188 11.3301 12.8594C11.0137 13 10.6895 13.1992 10.3574 13.457L9.83594 12.8008C10.0625 12.6094 10.3086 12.4395 10.5742 12.291C10.8438 12.1426 11.1309 12.0254 11.4355 11.9395C11.7441 11.8535 12.0723 11.8105 12.4199 11.8105C12.9473 11.8105 13.4023 11.9023 13.7852 12.0859C14.168 12.2695 14.4629 12.5312 14.6699 12.8711C14.8809 13.2109 14.9863 13.6152 14.9863 14.084C14.9863 14.5371 14.8965 14.959 14.7168 15.3496C14.5371 15.7363 14.2852 16.1211 13.9609 16.5039C13.6367 16.8828 13.2578 17.2852 12.8242 17.7109L10.9609 19.5684V19.6094H15.3379V20.5ZM19.4219 11.8105C19.918 11.8105 20.3574 11.8887 20.7402 12.0449C21.123 12.2012 21.4219 12.4316 21.6367 12.7363C21.8555 13.0371 21.9648 13.4082 21.9648 13.8496C21.9648 14.1973 21.8887 14.502 21.7363 14.7637C21.5879 15.0215 21.3867 15.248 21.1328 15.4434C20.8789 15.6348 20.5977 15.8066 20.2891 15.959C20.6562 16.127 20.9863 16.3164 21.2793 16.5273C21.5762 16.7383 21.8105 16.9863 21.9824 17.2715C22.1543 17.5566 22.2402 17.8945 22.2402 18.2852C22.2402 18.7656 22.123 19.1816 21.8887 19.5332C21.6582 19.8809 21.334 20.1484 20.916 20.3359C20.498 20.5234 20.0078 20.6172 19.4453 20.6172C18.8398 20.6172 18.3242 20.5273 17.8984 20.3477C17.4766 20.1641 17.1543 19.9023 16.9316 19.5625C16.7129 19.2188 16.6035 18.8066 16.6035 18.3262C16.6035 17.9316 16.6875 17.5898 16.8555 17.3008C17.0234 17.0078 17.2461 16.7559 17.5234 16.5449C17.8008 16.334 18.1035 16.1562 18.4316 16.0117C18.1465 15.8555 17.8848 15.6777 17.6465 15.4785C17.4121 15.2793 17.2246 15.0469 17.084 14.7812C16.9473 14.5117 16.8789 14.1992 16.8789 13.8438C16.8789 13.4102 16.9883 13.043 17.207 12.7422C17.4297 12.4375 17.7324 12.207 18.1152 12.0508C18.502 11.8906 18.9375 11.8105 19.4219 11.8105ZM17.5586 18.332C17.5586 18.7695 17.7129 19.1309 18.0215 19.416C18.3301 19.6973 18.7969 19.8379 19.4219 19.8379C20.0156 19.8379 20.4746 19.6973 20.7988 19.416C21.123 19.1309 21.2852 18.7578 21.2852 18.2969C21.2852 18.0117 21.2109 17.7617 21.0625 17.5469C20.9141 17.3281 20.7031 17.1328 20.4297 16.9609C20.1562 16.7891 19.834 16.6328 19.4629 16.4922L19.252 16.416C18.8926 16.5645 18.5859 16.7305 18.332 16.9141C18.082 17.0938 17.8906 17.2988 17.7578 17.5293C17.625 17.7598 17.5586 18.0273 17.5586 18.332ZM19.4102 12.6074C18.9492 12.6074 18.5723 12.7188 18.2793 12.9414C17.9863 13.1602 17.8398 13.4766 17.8398 13.8906C17.8398 14.1875 17.9102 14.4395 18.0508 14.6465C18.1953 14.8496 18.3906 15.0254 18.6367 15.1738C18.8828 15.3184 19.1582 15.4531 19.4629 15.5781C19.7598 15.4531 20.0234 15.3164 20.2539 15.168C20.4844 15.0156 20.666 14.8359 20.7988 14.6289C20.9316 14.4219 20.998 14.1738 20.998 13.8848C20.998 13.4707 20.8516 13.1543 20.5586 12.9355C20.2695 12.7168 19.8867 12.6074 19.4102 12.6074Z" fill="#212121"/>
<circle cx="60" cy="16.5" r="10" fill="#2ECC71"/>
<path d="M59.3379 20.5H53.7246V19.6855L56.0156 17.3594C56.4414 16.9297 56.7988 16.5469 57.0879 16.2109C57.3809 15.875 57.6035 15.5449 57.7559 15.2207C57.9082 14.8926 57.9844 14.5332 57.9844 14.1426C57.9844 13.6582 57.8398 13.2891 57.5508 13.0352C57.2656 12.7773 56.8887 12.6484 56.4199 12.6484C56.0098 12.6484 55.6465 12.7188 55.3301 12.8594C55.0137 13 54.6895 13.1992 54.3574 13.457L53.8359 12.8008C54.0625 12.6094 54.3086 12.4395 54.5742 12.291C54.8438 12.1426 55.1309 12.0254 55.4355 11.9395C55.7441 11.8535 56.0723 11.8105 56.4199 11.8105C56.9473 11.8105 57.4023 11.9023 57.7852 12.0859C58.168 12.2695 58.4629 12.5312 58.6699 12.8711C58.8809 13.2109 58.9863 13.6152 58.9863 14.084C58.9863 14.5371 58.8965 14.959 58.7168 15.3496C58.5371 15.7363 58.2852 16.1211 57.9609 16.5039C57.6367 16.8828 57.2578 17.2852 56.8242 17.7109L54.9609 19.5684V19.6094H59.3379V20.5ZM63.4219 11.8105C63.918 11.8105 64.3574 11.8887 64.7402 12.0449C65.123 12.2012 65.4219 12.4316 65.6367 12.7363C65.8555 13.0371 65.9648 13.4082 65.9648 13.8496C65.9648 14.1973 65.8887 14.502 65.7363 14.7637C65.5879 15.0215 65.3867 15.248 65.1328 15.4434C64.8789 15.6348 64.5977 15.8066 64.2891 15.959C64.6562 16.127 64.9863 16.3164 65.2793 16.5273C65.5762 16.7383 65.8105 16.9863 65.9824 17.2715C66.1543 17.5566 66.2402 17.8945 66.2402 18.2852C66.2402 18.7656 66.123 19.1816 65.8887 19.5332C65.6582 19.8809 65.334 20.1484 64.916 20.3359C64.498 20.5234 64.0078 20.6172 63.4453 20.6172C62.8398 20.6172 62.3242 20.5273 61.8984 20.3477C61.4766 20.1641 61.1543 19.9023 60.9316 19.5625C60.7129 19.2188 60.6035 18.8066 60.6035 18.3262C60.6035 17.9316 60.6875 17.5898 60.8555 17.3008C61.0234 17.0078 61.2461 16.7559 61.5234 16.5449C61.8008 16.334 62.1035 16.1562 62.4316 16.0117C62.1465 15.8555 61.8848 15.6777 61.6465 15.4785C61.4121 15.2793 61.2246 15.0469 61.084 14.7812C60.9473 14.5117 60.8789 14.1992 60.8789 13.8438C60.8789 13.4102 60.9883 13.043 61.207 12.7422C61.4297 12.4375 61.7324 12.207 62.1152 12.0508C62.502 11.8906 62.9375 11.8105 63.4219 11.8105ZM61.5586 18.332C61.5586 18.7695 61.7129 19.1309 62.0215 19.416C62.3301 19.6973 62.7969 19.8379 63.4219 19.8379C64.0156 19.8379 64.4746 19.6973 64.7988 19.416C65.123 19.1309 65.2852 18.7578 65.2852 18.2969C65.2852 18.0117 65.2109 17.7617 65.0625 17.5469C64.9141 17.3281 64.7031 17.1328 64.4297 16.9609C64.1562 16.7891 63.834 16.6328 63.4629 16.4922L63.252 16.416C62.8926 16.5645 62.5859 16.7305 62.332 16.9141C62.082 17.0938 61.8906 17.2988 61.7578 17.5293C61.625 17.7598 61.5586 18.0273 61.5586 18.332ZM63.4102 12.6074C62.9492 12.6074 62.5723 12.7188 62.2793 12.9414C61.9863 13.1602 61.8398 13.4766 61.8398 13.8906C61.8398 14.1875 61.9102 14.4395 62.0508 14.6465C62.1953 14.8496 62.3906 15.0254 62.6367 15.1738C62.8828 15.3184 63.1582 15.4531 63.4629 15.5781C63.7598 15.4531 64.0234 15.3164 64.2539 15.168C64.4844 15.0156 64.666 14.8359 64.7988 14.6289C64.9316 14.4219 64.998 14.1738 64.998 13.8848C64.998 13.4707 64.8516 13.1543 64.5586 12.9355C64.2695 12.7168 63.8867 12.6074 63.4102 12.6074Z" fill="white"/>
<circle cx="104" cy="16.5" r="10" fill="#707070"/>
<path d="M103.338 20.5H97.7246V19.6855L100.016 17.3594C100.441 16.9297 100.799 16.5469 101.088 16.2109C101.381 15.875 101.604 15.5449 101.756 15.2207C101.908 14.8926 101.984 14.5332 101.984 14.1426C101.984 13.6582 101.84 13.2891 101.551 13.0352C101.266 12.7773 100.889 12.6484 100.42 12.6484C100.01 12.6484 99.6465 12.7188 99.3301 12.8594C99.0137 13 98.6895 13.1992 98.3574 13.457L97.8359 12.8008C98.0625 12.6094 98.3086 12.4395 98.5742 12.291C98.8438 12.1426 99.1309 12.0254 99.4355 11.9395C99.7441 11.8535 100.072 11.8105 100.42 11.8105C100.947 11.8105 101.402 11.9023 101.785 12.0859C102.168 12.2695 102.463 12.5312 102.67 12.8711C102.881 13.2109 102.986 13.6152 102.986 14.084C102.986 14.5371 102.896 14.959 102.717 15.3496C102.537 15.7363 102.285 16.1211 101.961 16.5039C101.637 16.8828 101.258 17.2852 100.824 17.7109L98.9609 19.5684V19.6094H103.338V20.5ZM107.422 11.8105C107.918 11.8105 108.357 11.8887 108.74 12.0449C109.123 12.2012 109.422 12.4316 109.637 12.7363C109.855 13.0371 109.965 13.4082 109.965 13.8496C109.965 14.1973 109.889 14.502 109.736 14.7637C109.588 15.0215 109.387 15.248 109.133 15.4434C108.879 15.6348 108.598 15.8066 108.289 15.959C108.656 16.127 108.986 16.3164 109.279 16.5273C109.576 16.7383 109.811 16.9863 109.982 17.2715C110.154 17.5566 110.24 17.8945 110.24 18.2852C110.24 18.7656 110.123 19.1816 109.889 19.5332C109.658 19.8809 109.334 20.1484 108.916 20.3359C108.498 20.5234 108.008 20.6172 107.445 20.6172C106.84 20.6172 106.324 20.5273 105.898 20.3477C105.477 20.1641 105.154 19.9023 104.932 19.5625C104.713 19.2188 104.604 18.8066 104.604 18.3262C104.604 17.9316 104.688 17.5898 104.855 17.3008C105.023 17.0078 105.246 16.7559 105.523 16.5449C105.801 16.334 106.104 16.1562 106.432 16.0117C106.146 15.8555 105.885 15.6777 105.646 15.4785C105.412 15.2793 105.225 15.0469 105.084 14.7812C104.947 14.5117 104.879 14.1992 104.879 13.8438C104.879 13.4102 104.988 13.043 105.207 12.7422C105.43 12.4375 105.732 12.207 106.115 12.0508C106.502 11.8906 106.938 11.8105 107.422 11.8105ZM105.559 18.332C105.559 18.7695 105.713 19.1309 106.021 19.416C106.33 19.6973 106.797 19.8379 107.422 19.8379C108.016 19.8379 108.475 19.6973 108.799 19.416C109.123 19.1309 109.285 18.7578 109.285 18.2969C109.285 18.0117 109.211 17.7617 109.062 17.5469C108.914 17.3281 108.703 17.1328 108.43 16.9609C108.156 16.7891 107.834 16.6328 107.463 16.4922L107.252 16.416C106.893 16.5645 106.586 16.7305 106.332 16.9141C106.082 17.0938 105.891 17.2988 105.758 17.5293C105.625 17.7598 105.559 18.0273 105.559 18.332ZM107.41 12.6074C106.949 12.6074 106.572 12.7188 106.279 12.9414C105.986 13.1602 105.84 13.4766 105.84 13.8906C105.84 14.1875 105.91 14.4395 106.051 14.6465C106.195 14.8496 106.391 15.0254 106.637 15.1738C106.883 15.3184 107.158 15.4531 107.463 15.5781C107.76 15.4531 108.023 15.3164 108.254 15.168C108.484 15.0156 108.666 14.8359 108.799 14.6289C108.932 14.4219 108.998 14.1738 108.998 13.8848C108.998 13.4707 108.852 13.1543 108.559 12.9355C108.27 12.7168 107.887 12.6074 107.41 12.6074Z" fill="white"/>
</svg>
