<svg width="24" height="24" viewBox="0 0 24 24" fill="none" xmlns="http://www.w3.org/2000/svg">
<path d="M11.8 5.9L11 5.1C12.4 3.7 14.2 3 16 3C17.8 3 19.6 3.7 21 5.1L20.2 5.9C19 4.8 17.5 4.2 16 4.2C14.5 4.2 13 4.8 11.8 5.9ZM21 15C21 13.9 20.1 13 19 13H17V9H15V11.8L21 17.8V15ZM18.5 7.5L19.3 6.7C18.4 5.8 17.2 5.3 16 5.3C14.8 5.3 13.6 5.8 12.7 6.7L13.5 7.5C14.2 6.8 15.1 6.5 16 6.5C16.9 6.5 17.8 6.8 18.5 7.5ZM22.1 21.5L20.8 22.8L19.1 21H4.99998C3.89998 21 2.99998 20.1 2.99998 19V15C2.99998 13.9 3.89998 13 4.99998 13H11.1L1.09998 3L2.39998 1.7L22.1 21.5ZM7.99998 16H5.99998V18H7.99998V16ZM11.5 16H9.49998V18H11.5V16ZM15 16.9L14.1 16H13V18H15V16.9Z" fill="#707070"/>
</svg>
