<svg width="24" height="24" viewBox="0 0 24 24" fill="none" xmlns="http://www.w3.org/2000/svg">
<path d="M12 15C7.58 15 4 16.79 4 19V21H20V19C20 16.79 16.42 15 12 15ZM8 9.00001C8 10.0609 8.42143 11.0783 9.17157 11.8284C9.92172 12.5786 10.9391 13 12 13C13.0609 13 14.0783 12.5786 14.8284 11.8284C15.5786 11.0783 16 10.0609 16 9.00001H8ZM11.5 2.00001C11.2 2.00001 11 2.21001 11 2.50001V5.50001H10V3.00001C10 3.00001 7.75 3.86001 7.75 6.75001C7.75 6.75001 7 6.89001 7 8.00001H17C16.95 6.89001 16.25 6.75001 16.25 6.75001C16.25 3.86001 14 3.00001 14 3.00001V5.50001H13V2.50001C13 2.21001 12.81 2.00001 12.5 2.00001H11.5Z" fill="#707070"/>
</svg>
