<svg width="24" height="24" viewBox="0 0 24 24" fill="none" xmlns="http://www.w3.org/2000/svg">
<path fill-rule="evenodd" clip-rule="evenodd" d="M13.64 16.464L13.632 16.472L11.712 14.552L12.56 13.704L13.64 14.784L15.632 12.8L16.48 13.648L13.648 16.48L13.64 16.464ZM12 4C7.6 4 4 7.6 4 12C4 16.4 7.6 20 12 20C16.4 20 20 16.4 20 12C20 7.6 16.4 4 12 4ZM8.272 7.424L9.4 8.552L10.528 7.424L11.376 8.272L10.248 9.4L11.376 10.528L10.528 11.376L9.4 10.248L8.272 11.376L7.424 10.528L8.552 9.4L7.424 8.272L8.272 7.424ZM12 18.4C10.24 18.4 8.64 17.68 7.44 16.56L16.56 7.44C17.68 8.64 18.4 10.24 18.4 12C18.4 15.52 15.52 18.4 12 18.4Z" fill="#707070"/>
</svg>
