<svg width="24" height="24" viewBox="0 0 24 24" fill="none" xmlns="http://www.w3.org/2000/svg">
<path d="M11.8 5.90001L11 5.10001C12.4 3.70001 14.2 3.00001 16 3.00001C17.8 3.00001 19.6 3.70001 21 5.10001L20.2 5.90001C19 4.80001 17.5 4.20001 16 4.20001C14.5 4.20001 13 4.80001 11.8 5.90001ZM21 15C21 13.9 20.1 13 19 13H17V9.00001H15V11.8L21 17.8V15ZM18.5 7.50001L19.3 6.70001C18.4 5.80001 17.2 5.30001 16 5.30001C14.8 5.30001 13.6 5.80001 12.7 6.70001L13.5 7.50001C14.2 6.80001 15.1 6.50001 16 6.50001C16.9 6.50001 17.8 6.80001 18.5 7.50001ZM22.1 21.5L20.8 22.8L19.1 21H4.99998C3.89998 21 2.99998 20.1 2.99998 19V15C2.99998 13.9 3.89998 13 4.99998 13H11.1L1.09998 3.00001L2.39998 1.70001L22.1 21.5ZM7.99998 16H5.99998V18H7.99998V16ZM11.5 16H9.49998V18H11.5V16ZM15 16.9L14.1 16H13V18H15V16.9Z" fill="#707070"/>
</svg>
