<svg width="24" height="24" viewBox="0 0 24 24" fill="none" xmlns="http://www.w3.org/2000/svg">
<path d="M3 19V16.2C3 15.6167 3.14583 15.0917 3.4375 14.625C3.72917 14.1583 4.11667 13.8 4.6 13.55C5.63333 13.0333 6.68333 12.6458 7.75 12.3875C8.81667 12.1292 9.9 12 11 12C11.7 12 12.3958 12.0542 13.0875 12.1625C13.7792 12.2708 14.475 12.4333 15.175 12.65C14.8417 12.85 14.5417 13.0917 14.275 13.375C14.0083 13.6583 13.775 13.9667 13.575 14.3C13.1417 14.2 12.7125 14.125 12.2875 14.075C11.8625 14.025 11.4333 14 11 14C10.05 14 9.11667 14.1167 8.2 14.35C7.28333 14.5833 6.38333 14.9167 5.5 15.35C5.35 15.4333 5.22917 15.55 5.1375 15.7C5.04583 15.85 5 16.0167 5 16.2V17H13.025C13.0583 17.3333 13.1375 17.6667 13.2625 18C13.3875 18.3333 13.5583 18.6667 13.775 19H3ZM8.175 9.825C7.39167 9.04167 7 8.1 7 7C7 5.9 7.39167 4.95833 8.175 4.175C8.95833 3.39167 9.9 3 11 3C12.1 3 13.0417 3.39167 13.825 4.175C14.6083 4.95833 15 5.9 15 7C15 8.1 14.6083 9.04167 13.825 9.825C13.0417 10.6083 12.1 11 11 11C9.9 11 8.95833 10.6083 8.175 9.825ZM12.4125 8.4125C12.8042 8.02083 13 7.55 13 7C13 6.45 12.8042 5.97917 12.4125 5.5875C12.0208 5.19583 11.55 5 11 5C10.45 5 9.97917 5.19583 9.5875 5.5875C9.19583 5.97917 9 6.45 9 7C9 7.55 9.19583 8.02083 9.5875 8.4125C9.97917 8.80417 10.45 9 11 9C11.55 9 12.0208 8.80417 12.4125 8.4125Z" fill="#707070"/>
<path d="M18 19.1958L20.575 20.75L19.8917 17.8208L22.1667 15.85L19.1708 15.5958L18 12.8333L16.8292 15.5958L13.8333 15.85L16.1083 17.8208L15.425 20.75L18 19.1958Z" fill="#707070"/>
</svg>
