<svg width="24" height="24" viewBox="0 0 24 24" fill="none" xmlns="http://www.w3.org/2000/svg">
<path d="M15 13H16.5V15.82L18.94 17.23L18.19 18.53L15 16.69V13ZM19 8.00003H5V19H9.67C9.24 18.09 9 17.07 9 16C9 14.1435 9.7375 12.363 11.0503 11.0503C12.363 9.73752 14.1435 9.00003 16 9.00003C17.07 9.00003 18.09 9.24003 19 9.67003V8.00003ZM5 21C3.89 21 3 20.1 3 19V5.00003C3 3.89003 3.89 3.00003 5 3.00003H6V1.00003H8V3.00003H16V1.00003H18V3.00003H19C19.5304 3.00003 20.0391 3.21074 20.4142 3.58581C20.7893 3.96089 21 4.46959 21 5.00003V11.1C22.24 12.36 23 14.09 23 16C23 17.8565 22.2625 19.637 20.9497 20.9498C19.637 22.2625 17.8565 23 16 23C14.09 23 12.36 22.24 11.1 21H5ZM16 11.15C14.7137 11.15 13.4801 11.661 12.5705 12.5706C11.661 13.4801 11.15 14.7137 11.15 16C11.15 18.68 13.32 20.85 16 20.85C16.6369 20.85 17.2676 20.7246 17.856 20.4808C18.4444 20.2371 18.9791 19.8799 19.4295 19.4295C19.8798 18.9791 20.2371 18.4445 20.4808 17.856C20.7246 17.2676 20.85 16.6369 20.85 16C20.85 13.32 18.68 11.15 16 11.15Z" fill="#707070"/>
</svg>
