<svg width="20" height="20" viewBox="0 0 20 20" fill="none" xmlns="http://www.w3.org/2000/svg">
<g clip-path="url(#clip0_4139_16064)">
<rect width="30" height="20" transform="translate(-5)" fill="#F93939"/>
<path fill-rule="evenodd" clip-rule="evenodd" d="M15.0029 11.536L13.3429 12.3494L13.66 10.6254L12.3171 9.40269L14.1743 9.14936L15.0029 7.58136L15.8314 9.15069L17.6886 9.40403L16.3457 10.624L16.6629 12.348" fill="white"/>
<path fill-rule="evenodd" clip-rule="evenodd" d="M8.57153 14.6666C11.333 14.6666 13.5715 12.5773 13.5715 9.99998C13.5715 7.42265 11.333 5.33331 8.57153 5.33331C5.8101 5.33331 3.57153 7.42265 3.57153 9.99998C3.57153 12.5773 5.8101 14.6666 8.57153 14.6666ZM10.0001 13.3333C11.9715 13.3333 13.5715 11.84 13.5715 9.99998C13.5715 8.15998 11.9715 6.66665 10.0001 6.66665C8.02868 6.66665 6.42868 8.15998 6.42868 9.99998C6.42868 11.84 8.02868 13.3333 10.0001 13.3333Z" fill="white"/>
</g>
<defs>
<clipPath id="clip0_4139_16064">
<rect width="20" height="20" rx="10" fill="white"/>
</clipPath>
</defs>
</svg>
