<svg width="24" height="24" viewBox="0 0 24 24" fill="none" xmlns="http://www.w3.org/2000/svg">
<rect x="2" y="5" width="20" height="14.2857" fill="#F93939"/>
<rect x="1.5" y="4.5" width="21" height="15.2857" stroke="black" stroke-opacity="0.12"/>
<path fill-rule="evenodd" clip-rule="evenodd" d="M15.3352 13.24L14.2285 13.8209L14.4399 12.5895L13.5447 11.7162L14.7828 11.5352L15.3352 10.4152L15.8875 11.5362L17.1256 11.7171L16.2304 12.5886L16.4418 13.82" fill="white"/>
<path fill-rule="evenodd" clip-rule="evenodd" d="M11.0477 15.4762C12.8886 15.4762 14.381 13.9838 14.381 12.1428C14.381 10.3019 12.8886 8.80951 11.0477 8.80951C9.20674 8.80951 7.71436 10.3019 7.71436 12.1428C7.71436 13.9838 9.20674 15.4762 11.0477 15.4762ZM12.0001 14.5238C13.3144 14.5238 14.381 13.4571 14.381 12.1428C14.381 10.8286 13.3144 9.76189 12.0001 9.76189C10.6858 9.76189 9.61912 10.8286 9.61912 12.1428C9.61912 13.4571 10.6858 14.5238 12.0001 14.5238Z" fill="white"/>
</svg>
