<svg width="48" height="48" viewBox="0 0 48 48" fill="none" xmlns="http://www.w3.org/2000/svg">
<rect x="0.5" y="0.5" width="47" height="47" rx="23.5" stroke="#EEEEEE"/>
<path d="M35.292 23.496L24.492 12.696C24.042 12.2497 23.4338 11.9995 22.8 12H14.4C13.7635 12 13.153 12.2529 12.7029 12.7029C12.2529 13.153 12 13.7635 12 14.4V22.8C12.0027 23.4355 12.2573 24.044 12.708 24.492L23.508 35.292C23.956 35.7427 24.5645 35.9973 25.2 36C25.8355 35.9973 26.444 35.7427 26.892 35.292L35.292 26.892C35.7427 26.444 35.9973 25.8355 36 25.2C36.0003 24.8833 35.9378 24.5697 35.8163 24.2772C35.6948 23.9848 35.5166 23.7193 35.292 23.496ZM17.4 19.2C17.044 19.2 16.696 19.0944 16.4 18.8966C16.104 18.6989 15.8733 18.4177 15.737 18.0888C15.6008 17.7599 15.5651 17.398 15.6346 17.0488C15.704 16.6997 15.8755 16.3789 16.1272 16.1272C16.3789 15.8755 16.6997 15.704 17.0488 15.6346C17.398 15.5651 17.7599 15.6008 18.0888 15.737C18.4177 15.8733 18.6989 16.104 18.8966 16.4C19.0944 16.696 19.2 17.044 19.2 17.4C19.2 17.8774 19.0104 18.3352 18.6728 18.6728C18.3352 19.0104 17.8774 19.2 17.4 19.2ZM23.508 28.092L18.708 23.292L20.4 21.6L25.2 26.4L23.508 28.092ZM28.308 26.892L21.708 20.292L23.4 18.6L30 25.2L28.308 26.892Z" fill="#F44336"/>
</svg>
