<svg width="48" height="48" viewBox="0 0 48 48" fill="none" xmlns="http://www.w3.org/2000/svg">
<rect width="48" height="48" rx="24" fill="black" fill-opacity="0.12"/>
<path d="M15.6 16C14.28 16 13.2 17.08 13.2 18.4V23.2C13.2 24.532 14.28 25.6 15.6 25.6H22.8V28H21.6C20.94 28 20.4 28.54 20.4 29.2H12V31.6H20.4C20.4 32.26 20.94 32.8 21.6 32.8H26.4C27.06 32.8 27.6 32.26 27.6 31.6H36V29.2H27.6C27.6 28.54 27.06 28 26.4 28H25.2V25.6H32.4C33.732 25.6 34.8 24.532 34.8 23.2V18.4C34.8 17.08 33.732 16 32.4 16H15.6ZM16.8 19.6H19.2V22H16.8V19.6ZM21 19.6H23.4V22H21V19.6ZM25.2 19.6H27.6V22H25.2V19.6Z" fill="#707070"/>
</svg>
