<svg width="48" height="48" viewBox="0 0 48 48" fill="none" xmlns="http://www.w3.org/2000/svg">
<rect width="48" height="48" rx="24" fill="#F44336" fill-opacity="0.12"/>
<path fill-rule="evenodd" clip-rule="evenodd" d="M10 24C10 16.272 16.272 10 24 10C31.728 10 38 16.272 38 24C38 31.728 31.728 38 24 38C16.272 38 10 31.728 10 24ZM25.4 29.6V32.4H22.6V29.6H25.4ZM24 35.2C17.826 35.2 12.8 30.174 12.8 24C12.8 17.826 17.826 12.8 24 12.8C30.174 12.8 35.2 17.826 35.2 24C35.2 30.174 30.174 35.2 24 35.2ZM18.4 21.2C18.4 18.106 20.906 15.6 24 15.6C27.094 15.6 29.6 18.106 29.6 21.2C29.6 22.9961 28.494 23.9626 27.4171 24.9038C26.3954 25.7966 25.4 26.6665 25.4 28.2H22.6C22.6 25.6502 23.919 24.6392 25.0786 23.7503C25.9883 23.0531 26.8 22.4309 26.8 21.2C26.8 19.66 25.54 18.4 24 18.4C22.46 18.4 21.2 19.66 21.2 21.2H18.4Z" fill="#F44336"/>
<path fill-rule="evenodd" clip-rule="evenodd" d="M25.4002 29.6V32.4H22.6002V29.6H25.4002ZM24.0002 35.2C17.8262 35.2 12.8002 30.174 12.8002 24C12.8002 17.826 17.8262 12.8 24.0002 12.8C30.1742 12.8 35.2002 17.826 35.2002 24C35.2002 30.174 30.1742 35.2 24.0002 35.2ZM18.4002 21.2C18.4002 18.106 20.9062 15.6 24.0002 15.6C27.0942 15.6 29.6002 18.106 29.6002 21.2C29.6002 22.9961 28.4941 23.9626 27.4172 24.9037C26.3956 25.7966 25.4002 26.6665 25.4002 28.2H22.6002C22.6002 25.6502 23.9191 24.6392 25.0788 23.7503C25.9885 23.053 26.8002 22.4309 26.8002 21.2C26.8002 19.66 25.5402 18.4 24.0002 18.4C22.4602 18.4 21.2002 19.66 21.2002 21.2H18.4002Z" fill="#F44336" fill-opacity="0.12"/>
</svg>
