<svg width="32" height="32" viewBox="0 0 32 32" fill="none" xmlns="http://www.w3.org/2000/svg">
<path fill-rule="evenodd" clip-rule="evenodd" d="M2 16C2 8.272 8.272 2 16 2C23.728 2 30 8.272 30 16C30 23.728 23.728 30 16 30C8.272 30 2 23.728 2 16ZM17.4 21.6V24.4H14.6V21.6H17.4ZM16 27.2C9.826 27.2 4.8 22.174 4.8 16C4.8 9.826 9.826 4.8 16 4.8C22.174 4.8 27.2 9.826 27.2 16C27.2 22.174 22.174 27.2 16 27.2ZM10.4 13.2C10.4 10.106 12.906 7.6 16 7.6C19.094 7.6 21.6 10.106 21.6 13.2C21.6 14.9961 20.494 15.9626 19.4171 16.9038C18.3954 17.7966 17.4 18.6665 17.4 20.2H14.6C14.6 17.6502 15.919 16.6392 17.0786 15.7503C17.9883 15.0531 18.8 14.4309 18.8 13.2C18.8 11.66 17.54 10.4 16 10.4C14.46 10.4 13.2 11.66 13.2 13.2H10.4Z" fill="#F44336"/>
<path fill-rule="evenodd" clip-rule="evenodd" d="M17.4002 21.6V24.4H14.6002V21.6H17.4002ZM16.0002 27.2C9.82617 27.2 4.80017 22.174 4.80017 16C4.80017 9.82602 9.82617 4.80002 16.0002 4.80002C22.1742 4.80002 27.2002 9.82602 27.2002 16C27.2002 22.174 22.1742 27.2 16.0002 27.2ZM10.4002 13.2C10.4002 10.106 12.9062 7.60002 16.0002 7.60002C19.0942 7.60002 21.6002 10.106 21.6002 13.2C21.6002 14.9961 20.4941 15.9627 19.4172 16.9038C18.3956 17.7966 17.4002 18.6665 17.4002 20.2H14.6002C14.6002 17.6502 15.9191 16.6392 17.0788 15.7504C17.9885 15.0531 18.8002 14.4309 18.8002 13.2C18.8002 11.66 17.5402 10.4 16.0002 10.4C14.4602 10.4 13.2002 11.66 13.2002 13.2H10.4002Z" fill="#F44336" fill-opacity="0.12"/>
</svg>
