<svg width="32" height="32" viewBox="0 0 32 32" fill="none" xmlns="http://www.w3.org/2000/svg">
<path d="M7.73991 1.73999H18.4066L26.4066 9.73999L25.983 26.4573C25.9555 27.5418 25.0685 28.4067 23.9836 28.4067H7.73991C7.03266 28.4067 6.35439 28.1257 5.85429 27.6256C5.35419 27.1255 5.07324 26.4472 5.07324 25.74V4.40666C5.07324 3.69941 5.35419 3.02114 5.85429 2.52104C6.35439 2.02094 7.03266 1.73999 7.73991 1.73999Z" fill="#2ECC73"/>
<path d="M7.73987 4.40665V25.74H23.7399L25.5 23V17.5L23.7399 15.3906V11.0733H17.0732V4.40665H7.73987Z" fill="white"/>
<path d="M7.73987 4.40665V25.74H23.7399L25.5 23V17.5L23.7399 15.3906V11.0733H17.0732V4.40665H7.73987Z" fill="#2ECC71" fill-opacity="0.25"/>
<path fill-rule="evenodd" clip-rule="evenodd" d="M26.82 24.2733C28.5933 21.46 27.74 17.74 24.9533 15.98C22.14 14.2067 18.4067 15.0733 16.66 17.8467C14.8733 20.66 15.74 24.3667 18.5267 26.14C20.4733 27.38 22.9533 27.38 24.9133 26.1667L29.0733 30.26L30.9267 28.4067L26.82 24.2733ZM21.74 24.4067C20.8559 24.4067 20.0081 24.0555 19.383 23.4303C18.7579 22.8052 18.4067 21.9574 18.4067 21.0733C18.4067 20.1893 18.7579 19.3414 19.383 18.7163C20.0081 18.0912 20.8559 17.74 21.74 17.74C22.6241 17.74 23.4719 18.0912 24.097 18.7163C24.7221 19.3414 25.0733 20.1893 25.0733 21.0733C25.0733 21.9574 24.7221 22.8052 24.097 23.4303C23.4719 24.0555 22.6241 24.4067 21.74 24.4067Z" fill="#2ECC71"/>
</svg>
