<svg width="32" height="32" viewBox="0 0 32 32" fill="none" xmlns="http://www.w3.org/2000/svg">
<path d="M16.335 21.3355C18.5486 21.3355 20.3355 19.5486 20.3355 17.335C20.3355 15.8415 19.5221 14.5347 18.3352 13.8546L5.38697 6.3603L12.7612 19.1352C13.428 20.4421 14.7748 21.3355 16.335 21.3355ZM16.335 4C13.9214 4 11.6678 4.66675 9.70751 5.76022L12.5079 7.37376C13.668 6.92037 15.0015 6.667 16.335 6.667C22.2291 6.667 27.003 11.4409 27.003 17.335C27.003 20.282 25.8162 22.949 23.8826 24.8693H23.8693C23.3492 25.3893 23.3492 26.2294 23.8693 26.7495C24.3893 27.2696 25.2428 27.2696 25.7628 26.7628C28.1765 24.3492 29.67 21.0155 29.67 17.335C29.67 10.0008 23.6693 4 16.335 4ZM3 17.335C3 21.0155 4.49352 24.3492 6.90715 26.7628C7.42722 27.2696 8.26733 27.2696 8.78739 26.7495C9.30746 26.2294 9.30746 25.3893 8.78739 24.8693C6.85382 22.9357 5.667 20.282 5.667 17.335C5.667 16.0015 5.92037 14.668 6.38709 13.4679L4.77355 10.6675C3.66675 12.6678 3 14.908 3 17.335Z" fill="#FDD505"/>
</svg>
