<svg width="48" height="48" viewBox="0 0 48 48" fill="none" xmlns="http://www.w3.org/2000/svg">
<rect width="48" height="48" rx="24" fill="black" fill-opacity="0.12"/>
<path fill-rule="evenodd" clip-rule="evenodd" d="M18.0909 17C21.1755 17 23.7991 18.9736 24.7682 21.7273H37V26.4545H34.6364V31.1818H29.9091V26.4545H24.7682C23.7991 29.2082 21.1755 31.1818 18.0909 31.1818C14.1791 31.1818 11 28.0027 11 24.0909C11 20.1791 14.1791 17 18.0909 17ZM15.7273 24.0909C15.7273 25.3909 16.7909 26.4545 18.0909 26.4545C19.3909 26.4545 20.4545 25.3909 20.4545 24.0909C20.4545 22.7909 19.3909 21.7273 18.0909 21.7273C16.7909 21.7273 15.7273 22.7909 15.7273 24.0909Z" fill="#212121"/>
</svg>
