<svg width="48" height="48" viewBox="0 0 48 48" fill="none" xmlns="http://www.w3.org/2000/svg">
<rect width="48" height="48" rx="24" fill="#0099FF" fill-opacity="0.12"/>
<path d="M27.0021 25.002H29.0024V28.7624L32.2561 30.6427L31.256 32.3762L27.0021 29.9226V25.002ZM32.3361 18.3345H13.6671V33.003H19.8946C19.3212 31.7895 19.0011 30.4293 19.0011 29.0025C19.0011 26.5268 19.9846 24.1525 21.7351 22.402C23.4857 20.6514 25.86 19.668 28.3356 19.668C29.7625 19.668 31.1226 19.988 32.3361 20.5614V18.3345ZM28.3356 22.535C26.6203 22.535 24.9753 23.2164 23.7624 24.4293C22.5495 25.6422 21.8681 27.2872 21.8681 29.0025C21.8681 32.5763 24.7618 35.4699 28.3356 35.4699C29.1849 35.4699 30.0259 35.3027 30.8106 34.9776C31.5953 34.6526 32.3083 34.1762 32.9088 33.5757C33.5094 32.9751 33.9858 32.2621 34.3108 31.4775C34.6358 30.6928 34.8031 29.8518 34.8031 29.0025C34.8031 25.4287 31.9094 22.535 28.3356 22.535Z" fill="#0099FF" fill-opacity="0.12"/>
<path d="M27.002 25.002H29.0022V28.7625L32.256 30.6427L31.2559 32.3763L27.002 29.9226V25.002ZM32.336 18.3345H13.667V33.003H19.8944C19.321 31.7895 19.001 30.4293 19.001 29.0025C19.001 26.5268 19.9845 24.1526 21.735 22.402C23.4856 20.6515 25.8598 19.668 28.3355 19.668C29.7623 19.668 31.1225 19.988 32.336 20.5614V18.3345ZM13.667 35.67C12.1868 35.67 11 34.4698 11 33.003V14.334C11 12.8538 12.1868 11.667 13.667 11.667H15.0005V9H17.6675V11.667H28.3355V9H31.0025V11.667H32.336C33.0433 11.667 33.7217 11.948 34.2219 12.4481C34.722 12.9483 35.003 13.6267 35.003 14.334V22.4684C36.6565 24.1486 37.67 26.4555 37.67 29.0025C37.67 31.4782 36.6865 33.8524 34.936 35.603C33.1854 37.3535 30.8112 38.337 28.3355 38.337C25.7885 38.337 23.4816 37.3235 21.8014 35.67H13.667ZM28.3355 22.535C26.6202 22.535 24.9752 23.2164 23.7623 24.4293C22.5494 25.6422 21.868 27.2872 21.868 29.0025C21.868 32.5763 24.7617 35.47 28.3355 35.47C29.1848 35.47 30.0258 35.3027 30.8105 34.9777C31.5952 34.6526 32.3081 34.1763 32.9087 33.5757C33.5093 32.9751 33.9856 32.2622 34.3107 31.4775C34.6357 30.6928 34.803 29.8518 34.803 29.0025C34.803 25.4287 31.9093 22.535 28.3355 22.535Z" fill="#0099FF"/>
</svg>
