<svg width="48" height="48" viewBox="0 0 48 48" fill="none" xmlns="http://www.w3.org/2000/svg">
<rect width="48" height="48" rx="24" fill="#F28A0D" fill-opacity="0.12"/>
<path d="M23.9998 35.2C17.8258 35.2 12.7998 30.174 12.7998 24C12.7998 17.826 17.8258 12.8 23.9998 12.8C30.1738 12.8 35.1998 17.826 35.1998 24C35.1998 30.174 30.1738 35.2 23.9998 35.2Z" fill="#F28A0D" fill-opacity="0.12"/>
<path fill-rule="evenodd" clip-rule="evenodd" d="M24 10C16.272 10 10 16.272 10 24C10 31.728 16.272 38 24 38C31.728 38 38 31.728 38 24C38 16.272 31.728 10 24 10ZM12.8 24C12.8 30.174 17.826 35.2 24 35.2C30.174 35.2 35.2 30.174 35.2 24C35.2 17.826 30.174 12.8 24 12.8C17.826 12.8 12.8 17.826 12.8 24ZM17 22.6V25.4H31V22.6H17Z" fill="#F28A0D"/>
</svg>
