<svg width="48" height="48" viewBox="0 0 48 48" fill="none" xmlns="http://www.w3.org/2000/svg">
<rect width="48" height="48" rx="24" fill="#2ECC71" fill-opacity="0.12"/>
<path d="M14.6667 17.3333C15.4133 17.3333 16.1067 17.5333 16.7067 17.8933C16.5067 19.8 17.0667 21.6933 18.2133 23.1733C17.5467 24.4533 16.2133 25.3333 14.6667 25.3333C13.6058 25.3333 12.5884 24.9119 11.8382 24.1617C11.0881 23.4116 10.6667 22.3942 10.6667 21.3333C10.6667 20.2724 11.0881 19.255 11.8382 18.5049C12.5884 17.7547 13.6058 17.3333 14.6667 17.3333ZM33.3333 17.3333C34.3942 17.3333 35.4116 17.7547 36.1618 18.5049C36.9119 19.255 37.3333 20.2724 37.3333 21.3333C37.3333 22.3942 36.9119 23.4116 36.1618 24.1617C35.4116 24.9119 34.3942 25.3333 33.3333 25.3333C31.7867 25.3333 30.4533 24.4533 29.7867 23.1733C30.9333 21.6933 31.4933 19.8 31.2933 17.8933C31.8933 17.5333 32.5867 17.3333 33.3333 17.3333ZM8 33.3333V31.3333C8 29.48 10.52 27.92 13.9333 27.4666C13.1467 28.3733 12.6667 29.6266 12.6667 31V33.3333H8ZM40 33.3333H35.3333V31C35.3333 29.6266 34.8533 28.3733 34.0667 27.4666C37.48 27.92 40 29.48 40 31.3333V33.3333Z" fill="#2ECC71" fill-opacity="0.5"/>
<path d="M24 14C25.2377 14 26.4247 14.4917 27.2999 15.3668C28.175 16.242 28.6667 17.429 28.6667 18.6667C28.6667 19.9043 28.175 21.0913 27.2999 21.9665C26.4247 22.8417 25.2377 23.3333 24 23.3333C22.7624 23.3333 21.5754 22.8417 20.7002 21.9665C19.825 21.0913 19.3334 19.9043 19.3334 18.6667C19.3334 17.429 19.825 16.242 20.7002 15.3668C21.5754 14.4917 22.7624 14 24 14ZM15.3334 31C15.3334 28.24 19.2134 26 24 26C28.7867 26 32.6667 28.24 32.6667 31V33.3333H15.3334V31Z" fill="#2ECC71"/>
</svg>
