<svg width="32" height="32" viewBox="0 0 32 32" fill="none" xmlns="http://www.w3.org/2000/svg">
<path d="M15.665 20.3306C9.77259 20.3306 5 22.7169 5 25.6631V28.3294H26.33V25.6631C26.33 22.7169 21.5574 20.3306 15.665 20.3306ZM14.9984 3C14.5985 3 14.3319 3.27996 14.3319 3.66656V7.66594H12.9987V4.33313C12.9987 4.33313 9.99922 5.47961 9.99922 9.33234C9.99922 9.33234 8.99937 9.51898 8.99937 10.9988H22.3306C22.264 9.51898 21.3308 9.33234 21.3308 9.33234C21.3308 5.47961 18.3313 4.33313 18.3313 4.33313V7.66594H16.9981V3.66656C16.9981 3.27996 16.7448 3 16.3316 3H14.9984Z" fill="#2ECC71"/>
<path d="M10.3323 12.3319C10.3323 13.7461 10.8941 15.1025 11.8941 16.1025C12.8942 17.1026 14.2505 17.6644 15.6648 17.6644C17.079 17.6644 18.4354 17.1026 19.4354 16.1025C20.4355 15.1025 20.9973 13.7461 20.9973 12.3319H10.3323Z" fill="#2ECC71" fill-opacity="0.5"/>
</svg>
