<svg width="48" height="48" viewBox="0 0 48 48" fill="none" xmlns="http://www.w3.org/2000/svg">
<rect width="48" height="48" rx="24" fill="#F28A0D" fill-opacity="0.12"/>
<path d="M37.67 16.6675V24.6686H35.003V16.6675H37.67ZM35.003 27.3356H37.67V30.0026H35.003V27.3356ZM20.3345 35.3366C20.3345 36.0439 20.6155 36.7223 21.1156 37.2225C21.6158 37.7226 22.2941 38.0036 23.0015 38.0036C23.7088 38.0036 24.3872 37.7226 24.8873 37.2225C25.3875 36.7223 25.6685 36.0439 25.6685 35.3366H20.3345Z" fill="#F28A0D" fill-opacity="0.5"/>
<path d="M23.0015 10C22.2942 10 21.6158 10.281 21.1157 10.7811C20.6155 11.2813 20.3345 11.9597 20.3345 12.667C20.3252 12.7957 20.3252 12.925 20.3345 13.0537C16.494 14.1872 13.667 17.761 13.667 22.0015V30.0026L11 32.6696V34.0031H35.0031V32.6696L32.3361 30.0026V22.0015C32.3361 17.761 29.509 14.1872 25.6685 13.0537C25.6779 12.925 25.6779 12.7957 25.6685 12.667C25.6685 11.9597 25.3876 11.2813 24.8874 10.7811C24.3872 10.281 23.7089 10 23.0015 10Z" fill="#F28A0D"/>
</svg>
