<svg width="48" height="48" viewBox="0 0 48 48" fill="none" xmlns="http://www.w3.org/2000/svg">
<rect x="0.5" y="0.5" width="47" height="47" rx="23.5" stroke="#EEEEEE"/>
<path d="M38 24.3127L34.8945 20.7745L35.3273 16.0909L30.7327 15.0473L28.3273 11L24 12.8582L19.6727 11L17.2673 15.0473L12.6727 16.0782L13.1055 20.7618L10 24.3127L13.1055 27.8509L12.6727 32.5473L17.2673 33.5909L19.6727 37.6382L24 35.7673L28.3273 37.6255L30.7327 33.5782L35.3273 32.5345L34.8945 27.8509L38 24.3127ZM21.4545 30.6764L16.3636 25.5855L18.1582 23.7909L21.4545 27.0745L29.8418 18.6873L31.6364 20.4945L21.4545 30.6764Z" fill="#F28A0D"/>
</svg>
