<svg width="32" height="32" viewBox="0 0 32 32" fill="none" xmlns="http://www.w3.org/2000/svg">
<path d="M9.33667 5.66666V19H22.67V5.66666H9.33667Z" fill="#F44336" fill-opacity="0.12"/>
<path d="M20.0034 25.6667C20.0034 25.313 19.8629 24.9739 19.6129 24.7239C19.3628 24.4738 19.0237 24.3333 18.67 24.3333H17.3367V21.6667H22.67C23.3773 21.6667 24.0556 21.3857 24.5557 20.8856C25.0558 20.3855 25.3367 19.7072 25.3367 19V5.66667C25.3367 4.95942 25.0558 4.28115 24.5557 3.78105C24.0556 3.28095 23.3773 3 22.67 3H9.33671C8.62947 3 7.95119 3.28095 7.45109 3.78105C6.951 4.28115 6.67004 4.95942 6.67004 5.66667V19C6.67004 19.7072 6.951 20.3855 7.45109 20.8856C7.95119 21.3857 8.62947 21.6667 9.33671 21.6667H14.67V24.3333H13.3367C12.9831 24.3333 12.644 24.4738 12.3939 24.7239C12.1439 24.9739 12.0034 25.313 12.0034 25.6667H2.67004V28.3333H12.0034C12.0034 28.687 12.1439 29.0261 12.3939 29.2761C12.644 29.5262 12.9831 29.6667 13.3367 29.6667H18.67C19.0237 29.6667 19.3628 29.5262 19.6129 29.2761C19.8629 29.0261 20.0034 28.687 20.0034 28.3333H29.3367V25.6667H20.0034ZM9.33671 19V5.66667H22.67V19H9.33671ZM16.0034 17.6667L21.3367 12.3333H17.3367V7H14.67V12.3333H10.67L16.0034 17.6667Z" fill="#F44336"/>
</svg>
