<svg width="32" height="32" viewBox="0 0 32 32" fill="none" xmlns="http://www.w3.org/2000/svg">
<path d="M27.6638 21.6645H3.6665V5.66635H27.6638V21.6645Z" fill="#0099FF" fill-opacity="0.12"/>
<path d="M27.6636 21.6645H3.66636V5.66636H27.6636V21.6645ZM27.6636 3H3.66636C2.18653 3 1 4.18653 1 5.66636V21.6645C1 22.3717 1.28092 23.0499 1.78096 23.5499C2.281 24.05 2.9592 24.3309 3.66636 24.3309H12.9986V26.9973H10.3323V29.6636H20.9977V26.9973H18.3314V24.3309H27.6636C28.3708 24.3309 29.049 24.05 29.549 23.5499C30.0491 23.0499 30.33 22.3717 30.33 21.6645V5.66636C30.33 4.18653 29.1301 3 27.6636 3Z" fill="#0099FF"/>
</svg>
