<svg width="48" height="48" viewBox="0 0 48 48" fill="none" xmlns="http://www.w3.org/2000/svg">
<rect width="48" height="48" rx="24" fill="black" fill-opacity="0.12"/>
<path d="M27.6645 31.6646C29.786 31.6646 31.8206 30.8218 33.3207 29.3217C34.8208 27.8216 35.6636 25.787 35.6636 23.6655C35.6636 21.544 34.8208 19.5094 33.3207 18.0093C31.8206 16.5091 29.786 15.6664 27.6645 15.6664C25.543 15.6664 23.5084 16.5091 22.0083 18.0093C20.5082 19.5094 19.6654 21.544 19.6654 23.6655C19.6654 25.787 20.5082 27.8216 22.0083 29.3217C23.5084 30.8218 25.543 31.6646 27.6645 31.6646Z" fill="black" fill-opacity="0.12"/>
<path d="M27.6645 13C30.4932 13 33.206 14.1237 35.2062 16.1238C37.2063 18.124 38.33 20.8368 38.33 23.6655C38.33 26.4941 37.2063 29.2069 35.2062 31.2071C33.206 33.2072 30.4932 34.3309 27.6645 34.3309C24.8359 34.3309 22.1231 33.2072 20.1229 31.2071C18.1228 29.2069 16.9991 26.4941 16.9991 23.6655C16.9991 20.8368 18.1228 18.124 20.1229 16.1238C22.1231 14.1237 24.8359 13 27.6645 13ZM27.6645 31.6645C29.786 31.6645 31.8206 30.8218 33.3208 29.3217C34.8209 27.8215 35.6636 25.7869 35.6636 23.6655C35.6636 21.544 34.8209 19.5094 33.3208 18.0092C31.8206 16.5091 29.786 15.6664 27.6645 15.6664C25.5431 15.6664 23.5085 16.5091 22.0083 18.0092C20.5082 19.5094 19.6655 21.544 19.6655 23.6655C19.6655 25.7869 20.5082 27.8215 22.0083 29.3217C23.5085 30.8218 25.5431 31.6645 27.6645 31.6645ZM11.6664 23.6655C11.6664 27.1451 13.8928 30.1047 16.9991 31.1979V33.9843C12.3996 32.7977 9 28.6382 9 23.6655C9 18.6927 12.3996 14.5332 16.9991 13.3466V16.133C13.8928 17.2262 11.6664 20.1858 11.6664 23.6655Z" fill="#212121"/>
</svg>
