<svg width="48" height="48" viewBox="0 0 48 48" fill="none" xmlns="http://www.w3.org/2000/svg">
<rect x="0.5" y="0.5" width="47" height="47" rx="23.5" stroke="#EEEEEE"/>
<path d="M17.3367 13.6667V27H30.67V13.6667H17.3367Z" fill="#F44336" fill-opacity="0.12"/>
<path d="M28.0034 33.6667C28.0034 33.313 27.8629 32.9739 27.6129 32.7239C27.3628 32.4738 27.0237 32.3333 26.67 32.3333H25.3367V29.6667H30.67C31.3773 29.6667 32.0556 29.3857 32.5557 28.8856C33.0558 28.3855 33.3367 27.7072 33.3367 27V13.6667C33.3367 12.9594 33.0558 12.2811 32.5557 11.781C32.0556 11.281 31.3773 11 30.67 11H17.3367C16.6295 11 15.9512 11.281 15.4511 11.781C14.951 12.2811 14.67 12.9594 14.67 13.6667V27C14.67 27.7072 14.951 28.3855 15.4511 28.8856C15.9512 29.3857 16.6295 29.6667 17.3367 29.6667H22.67V32.3333H21.3367C20.9831 32.3333 20.644 32.4738 20.3939 32.7239C20.1439 32.9739 20.0034 33.313 20.0034 33.6667H10.67V36.3333H20.0034C20.0034 36.687 20.1439 37.0261 20.3939 37.2761C20.644 37.5262 20.9831 37.6667 21.3367 37.6667H26.67C27.0237 37.6667 27.3628 37.5262 27.6129 37.2761C27.8629 37.0261 28.0034 36.687 28.0034 36.3333H37.3367V33.6667H28.0034ZM17.3367 27V13.6667H30.67V27H17.3367ZM24.0034 25.6667L29.3367 20.3333H25.3367V15H22.67V20.3333H18.67L24.0034 25.6667Z" fill="#F44336"/>
</svg>
