<svg width="32" height="32" viewBox="0 0 32 32" fill="none" xmlns="http://www.w3.org/2000/svg">
<path d="M29.67 8.66754V16.6686H27.003V8.66754H29.67ZM27.003 19.3356H29.67V22.0026H27.003V19.3356ZM12.3345 27.3366C12.3345 28.0439 12.6155 28.7223 13.1156 29.2225C13.6158 29.7226 14.2941 30.0036 15.0015 30.0036C15.7088 30.0036 16.3872 29.7226 16.8873 29.2225C17.3875 28.7223 17.6685 28.0439 17.6685 27.3366H12.3345Z" fill="#F28A0D" fill-opacity="0.5"/>
<path d="M15.0015 2C14.2942 2 13.6158 2.28099 13.1157 2.78115C12.6155 3.28131 12.3345 3.95967 12.3345 4.66701C12.3252 4.79574 12.3252 4.92499 12.3345 5.05372C8.49404 6.1872 5.66701 9.76099 5.66701 14.0015V22.0026L3 24.6696V26.0031H27.0031V24.6696L24.3361 22.0026V14.0015C24.3361 9.76099 21.509 6.1872 17.6685 5.05372C17.6779 4.92499 17.6779 4.79574 17.6685 4.66701C17.6685 3.95967 17.3876 3.28131 16.8874 2.78115C16.3872 2.28099 15.7089 2 15.0015 2Z" fill="#F28A0D"/>
</svg>
