<svg width="32" height="32" viewBox="0 0 32 32" fill="none" xmlns="http://www.w3.org/2000/svg">
<path d="M4.00004 20H1.33337V4.00001C1.33337 3.29277 1.61433 2.61449 2.11442 2.11439C2.61452 1.6143 3.2928 1.33334 4.00004 1.33334H25.3334V4.00001H4.00004V20Z" fill="#FAAC3C"/>
<path d="M16 30.6667C15.6463 30.6667 15.3072 30.5262 15.0572 30.2761C14.8071 30.0261 14.6666 29.6869 14.6666 29.3333V25.3333H9.33329C8.62605 25.3333 7.94777 25.0524 7.44767 24.5523C6.94758 24.0522 6.66663 23.3739 6.66663 22.6667V9.33332C6.66663 8.62608 6.94758 7.9478 7.44767 7.4477C7.94777 6.94761 8.62605 6.66666 9.33329 6.66666H28C28.7072 6.66666 29.3855 6.94761 29.8856 7.4477C30.3857 7.9478 30.6666 8.62608 30.6666 9.33332V22.6667C30.6666 23.3739 30.3857 24.0522 29.8856 24.5523C29.3855 25.0524 28.7072 25.3333 28 25.3333H22.5333L17.6 30.28C17.3333 30.52 17.0133 30.6667 16.6666 30.6667H16ZM12 12V14.6667H25.3333V12H12ZM12 17.3333V20H22.6666V17.3333H12Z" fill="#FDD505"/>
</svg>
