<svg width="48" height="48" viewBox="0 0 48 48" fill="none" xmlns="http://www.w3.org/2000/svg">
<rect x="0.5" y="0.5" width="47" height="47" rx="23.5" stroke="#EEEEEE"/>
<path d="M35.6638 29.6646H11.6665V13.6664H35.6638V29.6646Z" fill="#0099FF" fill-opacity="0.12"/>
<path d="M35.6636 29.6645H11.6664V13.6664H35.6636V29.6645ZM35.6636 11H11.6664C10.1865 11 9 12.1865 9 13.6664V29.6645C9 30.3717 9.28092 31.0499 9.78096 31.5499C10.281 32.05 10.9592 32.3309 11.6664 32.3309H20.9986V34.9973H18.3323V37.6636H28.9977V34.9973H26.3314V32.3309H35.6636C36.3708 32.3309 37.049 32.05 37.549 31.5499C38.0491 31.0499 38.33 30.3717 38.33 29.6645V13.6664C38.33 12.1865 37.1301 11 35.6636 11Z" fill="#0099FF"/>
</svg>
