<svg width="48" height="48" viewBox="0 0 48 48" fill="none" xmlns="http://www.w3.org/2000/svg">
<rect x="0.5" y="0.5" width="47" height="47" rx="23.5" stroke="#EEEEEE"/>
<path d="M24.335 29.3355C26.5486 29.3355 28.3355 27.5486 28.3355 25.335C28.3355 23.8415 27.5221 22.5347 26.3352 21.8546L13.387 14.3603L20.7612 27.1352C21.428 28.4421 22.7748 29.3355 24.335 29.3355ZM24.335 12C21.9214 12 19.6678 12.6668 17.7075 13.7602L20.5079 15.3738C21.668 14.9204 23.0015 14.667 24.335 14.667C30.2291 14.667 35.003 19.4409 35.003 25.335C35.003 28.282 33.8162 30.949 31.8826 32.8693H31.8693C31.3492 33.3893 31.3492 34.2294 31.8693 34.7495C32.3893 35.2696 33.2428 35.2696 33.7628 34.7628C36.1765 32.3492 37.67 29.0155 37.67 25.335C37.67 18.0008 31.6693 12 24.335 12ZM11 25.335C11 29.0155 12.4935 32.3492 14.9072 34.7628C15.4272 35.2696 16.2673 35.2696 16.7874 34.7495C17.3075 34.2294 17.3075 33.3893 16.7874 32.8693C14.8538 30.9357 13.667 28.282 13.667 25.335C13.667 24.0015 13.9204 22.668 14.3871 21.4679L12.7736 18.6675C11.6667 20.6678 11 22.908 11 25.335Z" fill="#FDD505"/>
</svg>
