<svg width="32" height="32" viewBox="0 0 32 32" fill="none" xmlns="http://www.w3.org/2000/svg">
<path d="M15.9998 27.2C9.82581 27.2 4.7998 22.174 4.7998 16C4.7998 9.82602 9.82581 4.80002 15.9998 4.80002C22.1738 4.80002 27.1998 9.82602 27.1998 16C27.1998 22.174 22.1738 27.2 15.9998 27.2Z" fill="#F28A0D" fill-opacity="0.12"/>
<path fill-rule="evenodd" clip-rule="evenodd" d="M16 2C8.272 2 2 8.272 2 16C2 23.728 8.272 30 16 30C23.728 30 30 23.728 30 16C30 8.272 23.728 2 16 2ZM4.8 16C4.8 22.174 9.826 27.2 16 27.2C22.174 27.2 27.2 22.174 27.2 16C27.2 9.826 22.174 4.8 16 4.8C9.826 4.8 4.8 9.826 4.8 16ZM9 14.6V17.4H23V14.6H9Z" fill="#F28A0D"/>
</svg>
