<svg width="32" height="32" viewBox="0 0 32 32" fill="none" xmlns="http://www.w3.org/2000/svg">
<path d="M19.6645 23.6645C21.786 23.6645 23.8206 22.8218 25.3207 21.3217C26.8208 19.8215 27.6636 17.7869 27.6636 15.6654C27.6636 13.544 26.8208 11.5094 25.3207 10.0092C23.8206 8.50911 21.786 7.66635 19.6645 7.66635C17.543 7.66635 15.5084 8.50911 14.0083 10.0092C12.5082 11.5094 11.6654 13.544 11.6654 15.6654C11.6654 17.7869 12.5082 19.8215 14.0083 21.3217C15.5084 22.8218 17.543 23.6645 19.6645 23.6645Z" fill="black" fill-opacity="0.12"/>
<path d="M19.6645 5C22.4932 5 25.206 6.12368 27.2062 8.12384C29.2063 10.124 30.33 12.8368 30.33 15.6655C30.33 18.4941 29.2063 21.2069 27.2062 23.2071C25.206 25.2072 22.4932 26.3309 19.6645 26.3309C16.8359 26.3309 14.1231 25.2072 12.1229 23.2071C10.1228 21.2069 8.99909 18.4941 8.99909 15.6655C8.99909 12.8368 10.1228 10.124 12.1229 8.12384C14.1231 6.12368 16.8359 5 19.6645 5ZM19.6645 23.6645C21.786 23.6645 23.8206 22.8218 25.3208 21.3217C26.8209 19.8215 27.6636 17.7869 27.6636 15.6655C27.6636 13.544 26.8209 11.5094 25.3208 10.0092C23.8206 8.50912 21.786 7.66636 19.6645 7.66636C17.5431 7.66636 15.5085 8.50912 14.0083 10.0092C12.5082 11.5094 11.6655 13.544 11.6655 15.6655C11.6655 17.7869 12.5082 19.8215 14.0083 21.3217C15.5085 22.8218 17.5431 23.6645 19.6645 23.6645ZM3.66636 15.6655C3.66636 19.1451 5.89278 22.1047 8.99909 23.1979V25.9843C4.39961 24.7977 1 20.6382 1 15.6655C1 10.6927 4.39961 6.53316 8.99909 5.34663V8.13298C5.89278 9.22619 3.66636 12.1858 3.66636 15.6655Z" fill="#212121"/>
</svg>
