<svg width="48" height="48" viewBox="0 0 48 48" fill="none" xmlns="http://www.w3.org/2000/svg">
<rect x="0.5" y="0.5" width="47" height="47" rx="23.5" stroke="#EEEEEE"/>
<path d="M15.7399 9.73999H26.4066L34.4066 17.74L33.983 34.4573C33.9555 35.5418 33.0685 36.4067 31.9836 36.4067H15.7399C15.0327 36.4067 14.3544 36.1257 13.8543 35.6256C13.3542 35.1255 13.0732 34.4472 13.0732 33.74V12.4067C13.0732 11.6994 13.3542 11.0211 13.8543 10.521C14.3544 10.0209 15.0327 9.73999 15.7399 9.73999Z" fill="#2ECC73"/>
<path d="M15.7397 12.4066V33.74H31.7397L33.4998 31V25.5L31.7397 23.3906V19.0733H25.0731V12.4066H15.7397Z" fill="white"/>
<path d="M15.7397 12.4066V33.74H31.7397L33.4998 31V25.5L31.7397 23.3906V19.0733H25.0731V12.4066H15.7397Z" fill="#2ECC71" fill-opacity="0.25"/>
<path d="M24.6602 25.8467C26.4068 23.0735 30.1398 22.2065 32.9531 23.9795C35.7398 25.7395 36.5936 29.4601 34.8203 32.2734L38.9268 36.4062L37.0732 38.2598L32.9131 34.167C30.9531 35.3801 28.4729 35.3796 26.5264 34.1396C23.74 32.3662 22.8736 28.6599 24.6602 25.8467ZM29.7402 25.7402C28.8562 25.7402 28.0079 26.0908 27.3828 26.7158C26.7577 27.3409 26.4063 28.1892 26.4062 29.0732C26.4062 29.9573 26.7577 30.8055 27.3828 31.4307C28.0079 32.0557 28.8562 32.4062 29.7402 32.4062C30.624 32.4062 31.4716 32.0555 32.0967 31.4307C32.7218 30.8055 33.0732 29.9573 33.0732 29.0732C33.0732 28.1892 32.7218 27.3409 32.0967 26.7158C31.4717 26.091 30.624 25.7403 29.7402 25.7402Z" fill="#2ECC71"/>
</svg>
