<svg width="32" height="32" viewBox="0 0 32 32" fill="none" xmlns="http://www.w3.org/2000/svg">
<path d="M19.0021 17.002H21.0024V20.7624L24.2561 22.6427L23.256 24.3762L19.0021 21.9226V17.002ZM24.3361 10.3345H5.66711V25.003H11.8946C11.3212 23.7895 11.0011 22.4293 11.0011 21.0025C11.0011 18.5268 11.9846 16.1525 13.7351 14.402C15.4857 12.6514 17.86 11.668 20.3356 11.668C21.7625 11.668 23.1226 11.988 24.3361 12.5614V10.3345ZM20.3356 14.535C18.6203 14.535 16.9753 15.2164 15.7624 16.4293C14.5495 17.6422 13.8681 19.2872 13.8681 21.0025C13.8681 24.5763 16.7618 27.4699 20.3356 27.4699C21.1849 27.4699 22.0259 27.3027 22.8106 26.9776C23.5953 26.6526 24.3083 26.1762 24.9088 25.5757C25.5094 24.9751 25.9858 24.2621 26.3108 23.4775C26.6358 22.6928 26.8031 21.8518 26.8031 21.0025C26.8031 17.4287 23.9094 14.535 20.3356 14.535Z" fill="#0099FF" fill-opacity="0.12"/>
<path d="M19.002 17.002H21.0022V20.7625L24.256 22.6427L23.2559 24.3763L19.002 21.9226V17.002ZM24.336 10.3345H5.667V25.003H11.8944C11.321 23.7895 11.001 22.4293 11.001 21.0025C11.001 18.5268 11.9845 16.1526 13.735 14.402C15.4856 12.6515 17.8598 11.668 20.3355 11.668C21.7623 11.668 23.1225 11.988 24.336 12.5614V10.3345ZM5.667 27.67C4.18681 27.67 3 26.4698 3 25.003V6.334C3 4.85381 4.18681 3.667 5.667 3.667H7.0005V1H9.6675V3.667H20.3355V1H23.0025V3.667H24.336C25.0433 3.667 25.7217 3.94799 26.2219 4.44815C26.722 4.94831 27.003 5.62667 27.003 6.334V14.4684C28.6565 16.1486 29.67 18.4555 29.67 21.0025C29.67 23.4782 28.6865 25.8524 26.936 27.603C25.1854 29.3535 22.8112 30.337 20.3355 30.337C17.7885 30.337 15.4816 29.3235 13.8014 27.67H5.667ZM20.3355 14.535C18.6202 14.535 16.9752 15.2164 15.7623 16.4293C14.5494 17.6422 13.868 19.2872 13.868 21.0025C13.868 24.5763 16.7617 27.47 20.3355 27.47C21.1848 27.47 22.0258 27.3027 22.8105 26.9777C23.5952 26.6526 24.3081 26.1763 24.9087 25.5757C25.5093 24.9751 25.9856 24.2622 26.3107 23.4775C26.6357 22.6928 26.803 21.8518 26.803 21.0025C26.803 17.4287 23.9093 14.535 20.3355 14.535Z" fill="#0099FF"/>
</svg>
