<svg width="48" height="48" viewBox="0 0 48 48" fill="none" xmlns="http://www.w3.org/2000/svg">
<rect width="48" height="48" rx="24" fill="#2ECC71" fill-opacity="0.12"/>
<path d="M23.665 28.3306C17.7726 28.3306 13 30.7169 13 33.6631V36.3294H34.33V33.6631C34.33 30.7169 29.5574 28.3306 23.665 28.3306ZM22.9984 11C22.5985 11 22.3319 11.28 22.3319 11.6666V15.6659H20.9987V12.3331C20.9987 12.3331 17.9992 13.4796 17.9992 17.3323C17.9992 17.3323 16.9994 17.519 16.9994 18.9988H30.3306C30.264 17.519 29.3308 17.3323 29.3308 17.3323C29.3308 13.4796 26.3313 12.3331 26.3313 12.3331V15.6659H24.9981V11.6666C24.9981 11.28 24.7448 11 24.3316 11H22.9984Z" fill="#2ECC71"/>
<path d="M18.3323 20.3319C18.3323 21.7462 18.8941 23.1025 19.8941 24.1026C20.8942 25.1026 22.2505 25.6644 23.6648 25.6644C25.079 25.6644 26.4354 25.1026 27.4354 24.1026C28.4355 23.1025 28.9973 21.7462 28.9973 20.3319H18.3323Z" fill="#2ECC71" fill-opacity="0.5"/>
</svg>
