<svg width="32" height="32" viewBox="0 0 32 32" fill="none" xmlns="http://www.w3.org/2000/svg">
<path fill-rule="evenodd" clip-rule="evenodd" d="M10.0909 9C13.1755 9 15.7991 10.9736 16.7682 13.7273H29V18.4545H26.6364V23.1818H21.9091V18.4545H16.7682C15.7991 21.2082 13.1755 23.1818 10.0909 23.1818C6.17909 23.1818 3 20.0027 3 16.0909C3 12.1791 6.17909 9 10.0909 9ZM7.72727 16.0909C7.72727 17.3909 8.79091 18.4545 10.0909 18.4545C11.3909 18.4545 12.4545 17.3909 12.4545 16.0909C12.4545 14.7909 11.3909 13.7273 10.0909 13.7273C8.79091 13.7273 7.72727 14.7909 7.72727 16.0909Z" fill="#212121"/>
</svg>
