<svg width="32" height="32" viewBox="0 0 32 32" fill="none" xmlns="http://www.w3.org/2000/svg">
<path d="M7.6 8C6.28 8 5.2 9.08 5.2 10.4V15.2C5.2 16.532 6.28 17.6 7.6 17.6H14.8V20H13.6C12.94 20 12.4 20.54 12.4 21.2H4V23.6H12.4C12.4 24.26 12.94 24.8 13.6 24.8H18.4C19.06 24.8 19.6 24.26 19.6 23.6H28V21.2H19.6C19.6 20.54 19.06 20 18.4 20H17.2V17.6H24.4C25.732 17.6 26.8 16.532 26.8 15.2V10.4C26.8 9.08 25.732 8 24.4 8H7.6ZM8.8 11.6H11.2V14H8.8V11.6ZM13 11.6H15.4V14H13V11.6ZM17.2 11.6H19.6V14H17.2V11.6Z" fill="#707070"/>
</svg>
