<svg width="32" height="32" viewBox="0 0 32 32" fill="none" xmlns="http://www.w3.org/2000/svg">
<path d="M6.66667 9.33331C7.41333 9.33331 8.10667 9.53331 8.70667 9.89331C8.50667 11.8 9.06667 13.6933 10.2133 15.1733C9.54667 16.4533 8.21333 17.3333 6.66667 17.3333C5.6058 17.3333 4.58839 16.9119 3.83824 16.1617C3.08809 15.4116 2.66667 14.3942 2.66667 13.3333C2.66667 12.2724 3.08809 11.255 3.83824 10.5049C4.58839 9.75474 5.6058 9.33331 6.66667 9.33331ZM25.3333 9.33331C26.3942 9.33331 27.4116 9.75474 28.1618 10.5049C28.9119 11.255 29.3333 12.2724 29.3333 13.3333C29.3333 14.3942 28.9119 15.4116 28.1618 16.1617C27.4116 16.9119 26.3942 17.3333 25.3333 17.3333C23.7867 17.3333 22.4533 16.4533 21.7867 15.1733C22.9333 13.6933 23.4933 11.8 23.2933 9.89331C23.8933 9.53331 24.5867 9.33331 25.3333 9.33331ZM0 25.3333V23.3333C0 21.48 2.52 19.92 5.93333 19.4666C5.14667 20.3733 4.66667 21.6266 4.66667 23V25.3333H0ZM32 25.3333H27.3333V23C27.3333 21.6266 26.8533 20.3733 26.0667 19.4666C29.48 19.92 32 21.48 32 23.3333V25.3333Z" fill="#2ECC71" fill-opacity="0.5"/>
<path d="M16 6C17.2377 6 18.4247 6.49167 19.2999 7.36684C20.175 8.24201 20.6667 9.42899 20.6667 10.6667C20.6667 11.9043 20.175 13.0913 19.2999 13.9665C18.4247 14.8417 17.2377 15.3333 16 15.3333C14.7624 15.3333 13.5754 14.8417 12.7002 13.9665C11.825 13.0913 11.3334 11.9043 11.3334 10.6667C11.3334 9.42899 11.825 8.24201 12.7002 7.36684C13.5754 6.49167 14.7624 6 16 6ZM7.33337 23C7.33337 20.24 11.2134 18 16 18C20.7867 18 24.6667 20.24 24.6667 23V25.3333H7.33337V23Z" fill="#2ECC71"/>
</svg>
