<svg width="32" height="32" viewBox="0 0 32 32" fill="none" xmlns="http://www.w3.org/2000/svg">
<path d="M27.2921 15.496L16.4921 4.696C16.0421 4.2497 15.4339 3.9995 14.8001 4H6.40012C5.7636 4 5.15315 4.25286 4.70307 4.70294C4.25298 5.15303 4.00012 5.76348 4.00012 6.4V14.8C4.0028 15.4355 4.25742 16.044 4.70812 16.492L15.5081 27.292C15.9561 27.7427 16.5646 27.9973 17.2001 28C17.8356 27.9973 18.4441 27.7427 18.8921 27.292L27.2921 18.892C27.7428 18.444 27.9974 17.8355 28.0001 17.2C28.0004 16.8833 27.9379 16.5697 27.8164 16.2772C27.6949 15.9848 27.5167 15.7193 27.2921 15.496ZM9.40012 11.2C9.04412 11.2 8.6961 11.0944 8.4001 10.8966C8.10409 10.6989 7.87338 10.4177 7.73714 10.0888C7.6009 9.75992 7.56526 9.398 7.63471 9.04884C7.70416 8.69967 7.8756 8.37894 8.12733 8.12721C8.37906 7.87547 8.69979 7.70404 9.04896 7.63459C9.39813 7.56513 9.76005 7.60078 10.089 7.73702C10.4179 7.87326 10.699 8.10397 10.8968 8.39997C11.0946 8.69598 11.2001 9.04399 11.2001 9.4C11.2001 9.87739 11.0105 10.3352 10.6729 10.6728C10.3353 11.0104 9.87751 11.2 9.40012 11.2ZM15.5081 20.092L10.7081 15.292L12.4001 13.6L17.2001 18.4L15.5081 20.092ZM20.3081 18.892L13.7081 12.292L15.4001 10.6L22.0001 17.2L20.3081 18.892Z" fill="#F44336"/>
</svg>
