<svg width="24" height="24" viewBox="0 0 24 24" fill="none" xmlns="http://www.w3.org/2000/svg">
<path d="M14.4749 6.52513C13.8185 5.86875 12.9283 5.5 12 5.5C11.0717 5.5 10.1815 5.86875 9.52513 6.52513C8.86875 7.1815 8.5 8.07174 8.5 9C8.5 9.92826 8.86875 10.8185 9.52513 11.4749C10.1815 12.1313 11.0717 12.5 12 12.5C12.9283 12.5 13.8185 12.1313 14.4749 11.4749C15.1313 10.8185 15.5 9.92826 15.5 9C15.5 8.07174 15.1313 7.1815 14.4749 6.52513Z" fill="#707070"/>
<path d="M12 14.5C8.41 14.5 5.5 16.18 5.5 18.25V20H18.5V18.25C18.5 16.18 15.59 14.5 12 14.5Z" fill="#707070"/>
<path d="M6.53 8.42C6.08 8.15 5.56 8 5 8C4.20435 8 3.44129 8.31607 2.87868 8.87868C2.31607 9.44129 2 10.2044 2 11C2 11.7956 2.31607 12.5587 2.87868 13.1213C3.44129 13.6839 4.20435 14 5 14C6.16 14 7.16 13.34 7.66 12.38C6.8 11.27 6.38 9.85 6.53 8.42Z" fill="#707070"/>
<path d="M21.1213 8.87868C20.5587 8.31607 19.7957 8 19 8C18.44 8 17.92 8.15 17.47 8.42C17.62 9.85 17.2 11.27 16.34 12.38C16.84 13.34 17.84 14 19 14C19.7957 14 20.5587 13.6839 21.1213 13.1213C21.6839 12.5587 22 11.7956 22 11C22 10.2044 21.6839 9.44129 21.1213 8.87868Z" fill="#707070"/>
<path d="M0 18.5V20H3.5V18.25C3.5 17.22 3.86 16.28 4.45 15.6C1.89 15.94 0 17.11 0 18.5Z" fill="#707070"/>
<path d="M20.5 20H24V18.5C24 17.11 22.11 15.94 19.55 15.6C20.14 16.28 20.5 17.22 20.5 18.25V20Z" fill="#707070"/>
</svg>
