<svg width="24" height="24" viewBox="0 0 24 24" fill="none" xmlns="http://www.w3.org/2000/svg">
<path d="M10.46 19C9.00001 21.07 6.15001 21.59 4.09001 20.15C2.04001 18.71 1.56001 15.84 3.00001 13.75C3.87001 12.5 5.21001 11.83 6.58001 11.77L6.63001 13.2C5.72001 13.27 4.84001 13.74 4.27001 14.56C3.27001 16 3.58001 17.94 4.95001 18.91C6.33001 19.87 8.26001 19.5 9.26001 18.07C9.57001 17.62 9.75001 17.13 9.82001 16.63V15.62L15.4 15.58L15.47 15.47C16 14.55 17.15 14.23 18.05 14.75C18.95 15.27 19.26 16.43 18.73 17.35C18.2 18.26 17.04 18.58 16.14 18.06C15.73 17.83 15.44 17.46 15.31 17.04L11.24 17.06C11.13 17.73 10.87 18.38 10.46 19ZM17.74 11.86C20.27 12.17 22.07 14.44 21.76 16.93C21.45 19.43 19.15 21.2 16.62 20.89C15.13 20.71 13.9 19.86 13.19 18.68L14.43 17.96C14.92 18.73 15.75 19.28 16.75 19.41C18.5 19.62 20.05 18.43 20.26 16.76C20.47 15.09 19.23 13.56 17.5 13.35C16.96 13.29 16.44 13.36 15.97 13.53L15.12 13.97L12.54 9.20001H12.32C11.26 9.16001 10.44 8.29001 10.47 7.25001C10.5 6.21001 11.4 5.40001 12.45 5.44001C13.5 5.50001 14.33 6.35001 14.3 7.39001C14.28 7.83001 14.11 8.23001 13.84 8.54001L15.74 12.05C16.36 11.85 17.04 11.78 17.74 11.86ZM8.25001 9.14001C7.25001 6.79001 8.31001 4.10001 10.62 3.12001C12.94 2.14001 15.62 3.25001 16.62 5.60001C17.21 6.97001 17.09 8.47001 16.42 9.67001L15.18 8.95001C15.6 8.14001 15.67 7.15001 15.27 6.22001C14.59 4.62001 12.78 3.85001 11.23 4.50001C9.67001 5.16001 8.97001 7.00001 9.65001 8.60001C9.93001 9.26001 10.4 9.77001 10.97 10.11L11.36 10.32L8.29001 15.31C8.32001 15.36 8.36001 15.42 8.39001 15.5C8.88001 16.41 8.54001 17.56 7.62001 18.05C6.71001 18.54 5.56001 18.18 5.06001 17.24C4.57001 16.31 4.91001 15.16 5.83001 14.67C6.22001 14.46 6.65001 14.41 7.06001 14.5L9.37001 10.73C8.90001 10.3 8.50001 9.76001 8.25001 9.14001Z" fill="#707070"/>
</svg>
