<svg width="36" height="36" viewBox="0 0 36 36" fill="none" xmlns="http://www.w3.org/2000/svg">
<circle cx="18" cy="18" r="17" fill="#0099FF" stroke="white" stroke-width="2"/>
<path fill-rule="evenodd" clip-rule="evenodd" d="M18 15V12C14.69 12 12 14.69 12 18C12 19.01 12.25 19.97 12.7 20.8L11.24 22.26C10.46 21.03 10 19.57 10 18C10 13.58 13.58 10 18 10V7L22 11L18 15ZM23.3 15.2L24.76 13.74C25.54 14.97 26 16.43 26 18C26 22.42 22.42 26 18 26V29L14 25L18 21V24C21.31 24 24 21.31 24 18C24 16.99 23.74 16.04 23.3 15.2Z" fill="white"/>
</svg>
