<svg width="340" height="237" viewBox="0 0 340 237" fill="none" xmlns="http://www.w3.org/2000/svg">
<path fill-rule="evenodd" clip-rule="evenodd" d="M167.047 34.7591C167.014 35.62 166.981 36.4634 167.014 37.1966C167.062 38.2615 167.147 39.3276 167.232 40.3939C167.361 42.0106 167.49 43.628 167.49 45.2431V48.3257C167.49 48.7178 167.522 49.1222 167.554 49.528C167.601 50.1228 167.648 50.7206 167.595 51.2874C167.385 53.5372 167.384 58.6652 167.49 59.0392C167.547 59.243 168.648 59.2101 169.65 59.1801C170.488 59.155 171.256 59.132 171.29 59.2508C171.527 60.0811 171.57 60.6712 171.57 61.4872C171.57 61.8247 171.532 62.2376 171.499 62.5975C171.452 63.1076 171.415 63.5115 171.509 63.444C172.28 62.8935 172.764 62.2135 173.228 61.5629C173.947 60.5536 174.615 59.6153 176.224 59.3414C177.06 59.1991 177.986 59.239 178.879 59.2775C179.236 59.2929 179.587 59.308 179.926 59.3112C181.671 59.3277 183.455 59.3863 185.199 59.4774C186.596 59.5504 188.012 59.5168 189.422 59.4833C190.082 59.4676 190.74 59.4519 191.395 59.4472C194.621 59.424 197.456 59.2732 200.673 59.0392C201.577 58.9735 202.485 58.9954 203.392 59.0173C203.846 59.0283 204.3 59.0392 204.753 59.0392C205.877 59.0392 205.686 56.68 205.599 56.2135C205.339 54.8182 205.375 53.3435 205.409 51.8988C205.421 51.408 205.433 50.9207 205.433 50.4412C205.433 47.3261 205.399 44.0348 205.365 40.7419C205.331 37.4458 205.297 34.148 205.297 31.0239C204.769 31.0239 204.191 31.0577 203.609 31.0917C202.949 31.1304 202.283 31.1694 201.676 31.1599C199.917 31.1324 198.247 31.1414 196.546 31.1505C195.683 31.1552 194.813 31.1599 193.918 31.1599C191.351 31.1599 188.785 31.1259 186.219 31.0919C183.653 31.0579 181.088 31.0239 178.521 31.0239C177.847 31.0239 177.172 31.0179 176.496 31.0119C174.609 30.9953 172.717 30.9786 170.837 31.0919C170.362 31.1205 169.799 31.1287 169.251 31.1366C168.263 31.151 167.32 31.1647 167.014 31.2959C167.143 32.3154 167.094 33.5544 167.047 34.7591Z" stroke="black" stroke-opacity="0.87" stroke-width="0.8" stroke-linecap="round" stroke-linejoin="round"/>
<path d="M172.045 37.0078C175.612 36.7359 179.173 36.5247 182.751 36.5318C186.511 36.5392 190.254 36.7703 194.009 36.8718" stroke="black" stroke-opacity="0.87" stroke-width="0.8" stroke-linecap="round" stroke-linejoin="round"/>
<path d="M172.045 41.3596C177.614 41.3596 183.216 41.3821 188.773 41.0197" stroke="black" stroke-opacity="0.87" stroke-width="0.8" stroke-linecap="round" stroke-linejoin="round"/>
<path d="M172.114 45.9835C172.542 46.1577 172.871 46.1875 173.33 46.1875C174.455 46.1875 175.576 46.1657 176.7 46.1195C180.046 45.9821 183.388 45.789 186.733 45.6436" stroke="black" stroke-opacity="0.87" stroke-width="0.8" stroke-linecap="round" stroke-linejoin="round"/>
<path fill-rule="evenodd" clip-rule="evenodd" d="M27.2556 64.0148C27.3497 69.6193 27.4398 74.9807 27.4655 79.12C27.4781 81.1502 27.5968 83.179 27.7153 85.2061C27.8405 87.3462 27.9655 89.4844 27.9655 91.62C27.9695 91.7984 27.9712 92.0033 27.973 92.2275C27.99 94.2925 28.0205 97.9924 29.9655 97.62C31.1826 97.3869 32.9655 97.1756 33.4655 98.12C33.9655 99.0644 33.1715 100.862 32.4655 102.12C31.7828 103.337 30.4655 107.12 31.9655 106.87C32.4949 106.782 33.7215 105.756 35.3027 104.434C38.2018 102.009 42.2931 98.5881 45.4655 98.12C47.4181 97.8319 49.4951 97.7057 51.4655 97.62C53.7094 97.5224 55.6822 97.3956 57.5744 97.2739C61.0773 97.0486 64.3045 96.8411 68.4655 96.87C70.4984 96.8841 72.5315 96.9457 74.5648 97.0073C78.9672 97.1407 83.37 97.2742 87.7711 96.9256C89.7702 96.7672 91.7789 96.774 93.7872 96.7808C95.8042 96.7876 97.8207 96.7944 99.8266 96.6339C100.499 96.5801 101.172 96.5174 101.845 96.4546C103.639 96.2875 105.437 96.12 107.229 96.12C107.423 96.12 107.632 96.1307 107.85 96.1417C108.755 96.1878 109.801 96.241 110.41 95.5644C110.864 95.06 110.809 94.2381 110.747 93.3213C110.716 92.8525 110.683 92.3588 110.716 91.87C110.957 88.2395 110.806 84.66 110.654 81.0711C110.56 78.8368 110.466 76.5985 110.466 74.3422C110.466 67.5896 110.208 60.8113 109.938 54.0644C109.844 51.7247 109.919 48.486 109.994 45.2052C110.128 39.3694 110.266 33.4003 109.465 32.12C108.215 30.12 28.4654 31.12 27.4655 32.62C26.7462 33.6989 27.0143 49.6546 27.2556 64.0148Z" stroke="black" stroke-opacity="0.87" stroke-width="0.8" stroke-linecap="round" stroke-linejoin="round"/>
<path d="M35.8406 41.745C39.1709 41.6913 42.5175 41.4899 45.8406 41.2728C51.8157 40.8825 57.7466 40.7086 63.7364 40.752C76.07 40.8414 88.3844 41.6743 100.716 41.87" stroke="black" stroke-opacity="0.87" stroke-width="0.8" stroke-linecap="round" stroke-linejoin="round"/>
<path d="M35.8406 52.2451C39.2017 51.8663 42.6841 51.9601 46.0559 52.0576C52.6505 52.2481 59.2463 52.323 65.8406 52.1201" stroke="black" stroke-opacity="0.87" stroke-width="0.8" stroke-linecap="round" stroke-linejoin="round"/>
<path d="M36.8406 63.12C39.0413 63.1368 41.2359 63.2525 43.4378 63.245C48.3118 63.2284 53.1796 62.9293 58.042 62.62C67.878 61.9944 77.7358 61.745 87.5906 61.745" stroke="black" stroke-opacity="0.87" stroke-width="0.8" stroke-linecap="round" stroke-linejoin="round"/>
<path d="M37.7156 74.12C39.3029 74.0956 40.8821 73.8472 42.4656 73.745" stroke="black" stroke-opacity="0.87" stroke-width="0.8" stroke-linecap="round" stroke-linejoin="round"/>
<path fill-rule="evenodd" clip-rule="evenodd" d="M248.087 76.9103C248.025 78.4928 247.964 80.0432 248.025 81.3911C248.113 83.3487 248.27 85.3084 248.426 87.2687C248.663 90.2406 248.9 93.2137 248.9 96.1828V101.849C248.9 102.57 248.959 103.314 249.018 104.06C249.105 105.153 249.192 106.252 249.095 107.294C248.709 111.43 248.706 120.856 248.9 121.544C249.006 121.918 251.03 121.858 252.872 121.803C254.411 121.757 255.824 121.714 255.886 121.933C256.322 123.459 256.4 124.544 256.4 126.044C256.4 126.664 256.33 127.423 256.27 128.085C256.184 129.023 256.115 129.765 256.289 129.641C257.706 128.629 258.596 127.379 259.448 126.183C260.77 124.328 261.998 122.603 264.956 122.099C266.493 121.838 268.196 121.911 269.837 121.982C270.493 122.01 271.139 122.038 271.761 122.044C274.97 122.074 278.249 122.182 281.456 122.349C284.024 122.484 286.625 122.422 289.218 122.36C290.43 122.331 291.641 122.303 292.845 122.294C298.775 122.251 303.986 121.974 309.9 121.544C311.563 121.423 313.231 121.463 314.899 121.504C315.733 121.524 316.567 121.544 317.4 121.544C319.466 121.544 319.115 117.207 318.956 116.349C318.479 113.785 318.543 111.073 318.607 108.418C318.629 107.516 318.65 106.62 318.65 105.738C318.65 100.012 318.588 93.9615 318.525 87.9082C318.463 81.8491 318.4 75.7869 318.4 70.0439C317.429 70.0439 316.368 70.106 315.298 70.1687C314.085 70.2397 312.86 70.3113 311.744 70.2939C308.51 70.2433 305.441 70.2599 302.314 70.2767C300.728 70.2853 299.128 70.2939 297.483 70.2939C292.763 70.2939 288.047 70.2314 283.33 70.1689C278.614 70.1064 273.897 70.0439 269.178 70.0439C267.939 70.0439 266.699 70.0329 265.457 70.022C261.987 69.9913 258.51 69.9606 255.053 70.1689C254.18 70.2215 253.146 70.2365 252.137 70.2512C250.321 70.2776 248.588 70.3028 248.025 70.5439C248.263 72.4181 248.174 74.6957 248.087 76.9103Z" stroke="black" stroke-opacity="0.87" stroke-width="0.8" stroke-linecap="round" stroke-linejoin="round"/>
<path d="M257.275 81.0439C263.833 80.544 270.378 80.1558 276.956 80.1689C283.867 80.1826 290.748 80.6073 297.65 80.7939" stroke="black" stroke-opacity="0.87" stroke-width="0.8" stroke-linecap="round" stroke-linejoin="round"/>
<path d="M257.275 89.0438C267.513 89.0438 277.81 89.085 288.025 88.4188" stroke="black" stroke-opacity="0.87" stroke-width="0.8" stroke-linecap="round" stroke-linejoin="round"/>
<path d="M257.4 97.5438C258.187 97.8639 258.792 97.9188 259.637 97.9188C261.704 97.9188 263.765 97.8786 265.831 97.7938C271.982 97.5413 278.126 97.1862 284.275 96.9188" stroke="black" stroke-opacity="0.87" stroke-width="0.8" stroke-linecap="round" stroke-linejoin="round"/>
<path d="M130.864 156.209C130.864 128.215 142.677 105.521 179.935 105.521C217.192 105.521 226.279 128.215 226.279 156.209C226.279 211.344 226.279 211.344 179.935 211.344C130.864 211.344 130.864 211.344 130.864 156.209Z" fill="url(#paint0_linear_35083_194366)"/>
<mask id="mask0_35083_194366" style="mask-type:alpha" maskUnits="userSpaceOnUse" x="130" y="105" width="97" height="107">
<path d="M130.864 156.209C130.864 128.215 142.677 105.521 179.935 105.521C217.192 105.521 226.279 128.215 226.279 156.209C226.279 211.344 226.279 211.344 179.935 211.344C130.864 211.344 130.864 211.344 130.864 156.209Z" fill="#806B00"/>
</mask>
<g mask="url(#mask0_35083_194366)">
<path d="M203.726 210.478C222.81 200.069 230.616 115.063 182.042 104.654L199.389 99.4497C203.726 99.1606 214.829 100.317 224.544 107.256C236.688 115.93 238.423 120.267 253.169 135.013C267.915 149.759 280.058 164.505 281.793 185.323C283.528 206.141 281.793 223.489 280.926 232.163C280.058 240.837 160.731 233.93 203.726 210.478Z" fill="url(#paint1_linear_35083_194366)"/>
<path d="M144.744 118.532C149.948 111.592 156.887 108.123 175.103 102.051L190.715 93.377C181.174 94.2444 147.693 105.868 90.0968 145.421C18.102 194.863 81.4227 180.985 84.8923 194.863C88.3619 208.742 103.975 223.488 136.937 235.632C169.898 247.775 187.258 216.908 156.019 210.477C126.526 204.405 139.539 125.471 144.744 118.532Z" fill="url(#paint2_linear_35083_194366)"/>
</g>
<path d="M162.091 141.952C164.46 141.952 166.428 140.852 166.428 138.483C166.428 136.113 164.693 133.277 162.091 133.278C159.722 133.278 157.754 135.279 157.754 138.483C157.754 141.085 159.722 141.952 162.091 141.952Z" fill="#423400"/>
<path d="M195.422 141.924C193.068 141.653 191.239 140.336 191.509 137.982C191.779 135.628 193.302 133.19 195.92 133.278C198.025 133.35 200.492 135.788 200.126 138.971C199.829 141.557 197.776 142.194 195.422 141.924Z" fill="#423400"/>
<path fill-rule="evenodd" clip-rule="evenodd" d="M159.384 159.596C160.178 159.06 161.256 159.27 161.792 160.064C163.568 162.695 166.469 165.157 169.846 166.881C173.222 168.604 176.93 169.517 180.274 169.227C187.441 168.605 192.667 165.518 194.654 161.894C195.114 161.054 196.169 160.746 197.009 161.207C197.849 161.667 198.157 162.722 197.696 163.562C194.944 168.582 188.387 172.005 180.574 172.683C176.429 173.043 172.07 171.912 168.268 169.971C164.466 168.03 161.077 165.206 158.917 162.005C158.381 161.211 158.59 160.132 159.384 159.596Z" fill="#423400"/>
<path d="M112.158 186.998C112.627 187.565 116.357 191.051 120.607 192.429C122.896 193.187 126.918 193.187 129.286 192.74C131.655 192.292 132.678 191.826 133.885 191.222L131.471 185.79C130.264 186.394 128.961 186.935 127.246 186.998C125.813 187.05 124.92 186.829 123.625 186.394C121.216 185.186 117.477 183.056 115.779 180.962L112.158 186.998Z" fill="#202020"/>
<path d="M164.327 200.78V233.394H156.534V200.78H164.327Z" fill="#202020"/>
<path d="M192.912 200.78H200.704V233.361H192.912V200.78Z" fill="#202020"/>
<path d="M164.322 235.206H156.664C156.128 235.203 155.614 234.993 155.23 234.618C154.846 234.244 154.623 233.735 154.607 233.199V233.171V233.008C154.608 232.471 154.819 231.955 155.194 231.57C155.569 231.185 156.079 230.961 156.616 230.946H164.353C164.89 230.947 165.407 231.157 165.792 231.532C166.177 231.907 166.402 232.417 166.417 232.955V232.982V233.118C166.416 233.655 166.206 234.171 165.831 234.557C165.456 234.942 164.946 235.166 164.408 235.182H164.381L164.327 235.21" fill="#35322F"/>
<path d="M200.711 235.206H193.027C192.49 235.205 191.974 234.995 191.589 234.621C191.204 234.246 190.979 233.736 190.963 233.199V233.171V233.008C190.964 232.471 191.175 231.955 191.55 231.57C191.925 231.185 192.435 230.961 192.972 230.946H200.709C201.246 230.947 201.762 231.158 202.147 231.533C202.532 231.908 202.756 232.417 202.772 232.955V232.982V233.118C202.771 233.655 202.56 234.171 202.185 234.557C201.81 234.942 201.3 235.166 200.763 235.182H200.735L200.707 235.21" fill="#35322F"/>
<path d="M130.864 185.322C131.583 221.753 136.284 221.753 179.509 221.753L179.832 221.753C220.357 221.753 225.022 221.753 225.7 185.419C220.762 186.575 205.326 188.792 180.763 188.792C156.2 188.792 137.554 186.479 130.864 185.322Z" fill="#202020"/>
<path d="M146.573 200.033C146.271 200.033 146 199.803 146 199.516C146 199.229 146.255 199 146.573 199H153.189C153.491 199 153.762 199.229 153.762 199.516C153.762 199.803 153.507 200.033 153.189 200.033H146.573Z" fill="#04AF54"/>
<path d="M146.573 203.216C146.271 203.216 146 202.987 146 202.743C146 202.456 146.255 202.227 146.573 202.227H150.66C150.915 202.227 151.169 202.456 151.169 202.743C151.169 202.972 150.915 203.216 150.66 203.216H146.573Z" fill="#F68B1F"/>
<path d="M146.573 206.443C146.271 206.443 146 206.214 146 205.927C146 205.64 146.255 205.411 146.573 205.411H153.237C153.539 205.411 153.81 205.64 153.81 205.927C153.81 206.199 153.555 206.443 153.237 206.443H146.573Z" fill="#04AF54"/>
<path d="M208.793 199.832C209.429 200.377 209.747 201.166 209.747 202.212V206.558H208.602V202.298C208.602 201.538 208.363 200.922 207.934 200.52C207.504 200.119 206.852 199.918 206.041 199.918C205.119 199.918 204.403 200.162 203.862 200.635C203.353 201.108 203.099 201.782 203.099 202.614V206.558H201.954V199.072H203.051V200.448C203.353 200.004 203.799 199.631 204.355 199.387C204.912 199.143 205.564 199 206.28 199C207.314 199.014 208.188 199.287 208.793 199.832Z" fill="white"/>
<path d="M164.53 204.751L165.213 205.353C164.832 205.712 164.45 206.013 163.83 206.257C163.273 206.486 162.621 206.601 161.905 206.601C160.983 206.601 160.299 206.472 159.504 206.056C158.82 205.697 158.374 205.267 157.993 204.708C157.69 204.235 157.452 203.561 157.452 202.8C157.452 202.169 157.611 201.467 157.961 200.907C158.343 200.305 158.804 199.846 159.424 199.531C160.092 199.186 160.776 199.014 161.603 199.014C162.446 199.014 163.082 199.143 163.75 199.488C164.498 199.875 164.895 200.319 165.229 200.836C165.595 201.395 165.77 202.212 165.738 202.858H158.613C158.661 204.249 159.488 204.88 159.885 205.152C160.569 205.597 161.349 205.712 161.953 205.712C163.257 205.697 164.068 205.253 164.53 204.751ZM159.52 200.635C159.026 201.037 158.724 201.696 158.645 202.141H164.609C164.482 201.309 163.941 200.707 163.512 200.434C163.098 200.162 162.557 199.889 161.667 199.889C160.776 199.875 160.108 200.147 159.52 200.635Z" fill="white"/>
<path d="M174.311 199.086L170.541 206.558H169.38L165.611 199.086H166.82L170.001 205.439L173.197 199.086H174.311Z" fill="white"/>
<path d="M176.283 206.113C175.615 205.798 175.106 205.325 174.725 204.765C174.343 204.177 174.168 203.532 174.168 202.8C174.168 202.083 174.343 201.424 174.725 200.836C175.106 200.248 175.615 199.803 176.283 199.488C176.951 199.172 177.667 199.014 178.478 199.014C179.305 199.014 180.037 199.172 180.673 199.488C181.341 199.803 181.85 200.248 182.216 200.836C182.582 201.424 182.773 202.069 182.773 202.8C182.773 203.518 182.598 204.177 182.216 204.765C181.85 205.353 181.325 205.798 180.673 206.113C180.005 206.429 179.289 206.615 178.478 206.615C177.699 206.601 176.951 206.443 176.283 206.113ZM180.132 205.339C180.625 205.095 180.975 204.751 181.262 204.306C181.516 203.862 181.675 203.36 181.675 202.8C181.675 202.241 181.548 201.725 181.262 201.295C180.975 200.85 180.625 200.506 180.132 200.262C179.639 200.018 179.114 199.904 178.526 199.904C177.906 199.904 177.381 200.018 176.92 200.262C176.426 200.506 176.077 200.85 175.79 201.295C175.504 201.739 175.377 202.241 175.377 202.8C175.377 203.36 175.504 203.876 175.79 204.306C176.077 204.751 176.426 205.095 176.92 205.339C177.413 205.583 177.937 205.697 178.526 205.697C179.098 205.697 179.639 205.597 180.132 205.339Z" fill="white"/>
<path d="M185.969 206.128C185.301 205.812 184.792 205.367 184.41 204.779C184.028 204.192 183.854 203.546 183.854 202.815C183.854 202.098 184.028 201.438 184.41 200.85C184.792 200.262 185.301 199.817 185.969 199.502C186.637 199.186 187.384 199.029 188.227 199.029C188.975 199.029 189.611 199.158 190.2 199.416C190.756 199.66 191.217 200.018 191.551 200.52L190.709 201.036C190.422 200.678 190.072 200.377 189.627 200.205C189.182 200.033 188.736 199.932 188.211 199.932C187.591 199.932 187.066 200.047 186.541 200.291C186.048 200.535 185.667 200.879 185.396 201.323C185.11 201.768 184.983 202.27 184.983 202.829C184.983 203.417 185.11 203.905 185.396 204.364C185.683 204.808 186.064 205.152 186.541 205.382C187.034 205.626 187.591 205.74 188.211 205.74C188.72 205.74 189.182 205.654 189.627 205.468C190.056 205.281 190.422 205.023 190.709 204.636L191.551 205.152C191.217 205.626 190.756 206.013 190.168 206.257C189.579 206.5 188.939 206.644 188.227 206.644C187.384 206.644 186.621 206.443 185.969 206.128Z" fill="white"/>
<path d="M194.303 206.113C193.635 205.798 193.126 205.325 192.745 204.765C192.363 204.177 192.188 203.532 192.188 202.8C192.188 202.083 192.363 201.424 192.745 200.836C193.126 200.248 193.635 199.803 194.303 199.488C194.971 199.172 195.687 199.014 196.498 199.014C197.325 199.014 198.057 199.172 198.693 199.488C199.361 199.803 199.87 200.248 200.236 200.836C200.602 201.424 200.793 202.069 200.793 202.8C200.793 203.518 200.618 204.177 200.236 204.765C199.87 205.353 199.345 205.798 198.693 206.113C198.025 206.429 197.309 206.615 196.498 206.615C195.687 206.601 194.971 206.443 194.303 206.113ZM198.152 205.339C198.645 205.095 198.995 204.751 199.282 204.306C199.536 203.862 199.695 203.36 199.695 202.8C199.695 202.241 199.568 201.725 199.282 201.295C198.995 200.85 198.645 200.506 198.152 200.262C197.659 200.018 197.134 199.904 196.546 199.904C195.926 199.904 195.401 200.018 194.94 200.262C194.446 200.506 194.097 200.85 193.81 201.295C193.524 201.739 193.397 202.241 193.397 202.8C193.397 203.36 193.524 203.876 193.81 204.306C194.097 204.751 194.446 205.095 194.94 205.339C195.433 205.583 195.957 205.697 196.546 205.697C197.119 205.697 197.659 205.597 198.152 205.339Z" fill="white"/>
<path d="M238.175 203.921C238.229 203.188 238.555 196.781 236.44 192.845C235.312 190.714 233.661 188.906 231.641 187.59C229.621 186.274 228.087 185.599 225.682 185.428L225.38 191.295C226.74 191.428 227.343 191.898 228.476 192.661C229.609 193.424 230.534 194.457 231.168 195.667C232.071 198.207 232.423 200.909 232.2 203.595L238.175 203.921Z" fill="#202020"/>
<path d="M235.18 211.327C232.197 211.327 229.778 208.908 229.778 205.924C229.778 202.941 232.197 200.522 235.18 200.522C238.164 200.522 240.583 202.941 240.583 205.924C240.583 208.908 238.164 211.327 235.18 211.327Z" fill="#F8D000"/>
<path d="M114.533 226.019C118.524 226.347 122.396 226.111 126.362 225.781" stroke="black" stroke-linecap="round"/>
<path d="M112.373 123.5C117.03 123.883 121.691 123.055 126.306 123.435" stroke="black" stroke-linecap="round"/>
<path d="M113.302 222.587C115.929 222.803 118.519 222.713 121.13 222.928C122.984 223.081 125.076 223.541 126.886 223.099" stroke="black" stroke-linecap="round"/>
<path d="M113.298 218.953C117.41 219.292 121.605 219.407 125.703 219.066" stroke="black" stroke-linecap="round"/>
<path d="M112.763 210.734C117.486 211.123 122.228 210.907 126.948 211.296" stroke="black" stroke-linecap="round"/>
<path d="M114.724 216.345C115.668 217.018 116.563 217.604 117.608 218.097" stroke="black" stroke-linecap="round"/>
<path d="M114.897 214.24C116.914 214.899 118.514 216.424 120.388 217.417" stroke="black" stroke-linecap="round"/>
<path d="M117.151 212.609C119.044 214.257 121.297 215.758 123.446 217.063" stroke="black" stroke-linecap="round"/>
<path d="M121.386 212.655C122.279 213.95 123.374 214.749 124.797 215.358" stroke="black" stroke-linecap="round"/>
<path d="M115.634 223.687L116.763 224.688" stroke="black" stroke-linecap="round"/>
<path d="M119.317 223.082C119.905 223.614 120.447 224.166 120.998 224.734" stroke="black" stroke-linecap="round"/>
<path d="M113.03 225.895C112.69 221.467 113.169 217.027 112.676 212.611C112.424 210.35 112.443 207.9 112.577 205.638C112.972 198.988 112.63 193.397 112.413 185.557C112.343 183.014 112.257 181.589 112.192 179.046C112.001 171.657 112.049 167.509 112.151 160.118C112.215 155.515 112.543 152.222 112.431 148.333C112.313 144.19 112.361 140.038 112.243 135.903C112.129 131.889 112.38 127.773 112.047 123.775M126.613 226.407C126.767 223.946 126.646 221.442 126.634 218.991C126.625 216.939 127.029 214.522 126.697 212.503C126.009 208.312 126.815 203.706 126.694 199.466C126.511 193.066 126.293 186.683 126.237 180.286C126.212 177.471 125.968 175.376 126.157 173.079C126.78 165.508 126.321 158.215 126.196 148.692C126.088 140.48 125.581 132.244 126.256 124.036M112.807 228.602C113.375 230.868 113.637 232.945 115.659 234.421C116.967 235.376 118.488 235.775 120.082 235.862C123.644 236.056 126.133 232.24 126.39 229.114M112.871 121.118C113.688 118.051 114.491 114.952 115.51 111.949C115.959 110.624 116.421 109.308 116.83 107.97C116.933 107.63 117.886 103.785 118.336 104.376C119.908 106.44 120.639 110.035 121.608 112.451C122.805 115.435 123.752 118.518 124.951 121.507" stroke="black" stroke-linecap="round"/>
<path d="M116.519 109.912L120.128 110.209" stroke="black" stroke-linecap="round"/>
<path d="M118.092 105.5C118.024 106.337 117.269 110.529 117.967 107.845C118.408 106.148 118.719 105.241 118.53 107.538C118.478 108.168 117.889 109.738 118.442 109.432C118.803 109.231 119.031 108.219 119.093 107.854C119.418 105.948 119.431 109.257 119.55 109.859" stroke="black" stroke-linecap="round"/>
<path d="M117.197 208.374C116.699 201.881 116.992 195.298 117.007 188.812C117.014 185.677 116.695 182.385 116.866 179.279C117.048 175.978 116.504 172.643 116.775 169.347C117.381 161.987 115.578 154.459 116.181 147.127C116.462 143.71 116.535 140.307 116.722 136.877C116.885 133.879 116.315 130.777 116.562 127.78" stroke="black" stroke-linecap="round"/>
<path d="M121.959 209.371C122.159 205.953 121.917 202.52 122.199 199.096C122.492 195.537 121.955 191.961 122.169 188.429C122.382 184.903 122.551 180.792 122.11 177.288C121.648 173.624 122.237 169.802 122.172 166.107C122.048 159.038 121.236 151.931 121.817 144.866C122.322 138.739 121.62 132.55 122.124 126.421" stroke="black" stroke-linecap="round"/>
<path d="M108.301 177.66C110.455 175.595 113.875 175.668 115.939 177.822C118.004 179.976 117.931 183.395 115.777 185.46C113.623 187.524 110.203 187.452 108.139 185.298C106.075 183.144 106.147 179.724 108.301 177.66Z" fill="#F8D000"/>
<defs>
<linearGradient id="paint0_linear_35083_194366" x1="201.124" y1="178.383" x2="162.091" y2="114.195" gradientUnits="userSpaceOnUse">
<stop stop-color="#FFC700"/>
<stop offset="1" stop-color="#FFD600"/>
</linearGradient>
<linearGradient id="paint1_linear_35083_194366" x1="241.025" y1="108.124" x2="201.992" y2="147.157" gradientUnits="userSpaceOnUse">
<stop stop-color="#E99312"/>
<stop offset="1" stop-color="#E99312" stop-opacity="0"/>
</linearGradient>
<linearGradient id="paint2_linear_35083_194366" x1="123.925" y1="154.963" x2="142.141" y2="166.239" gradientUnits="userSpaceOnUse">
<stop stop-color="#FFE146"/>
<stop offset="1" stop-color="#FFE146" stop-opacity="0"/>
</linearGradient>
</defs>
</svg>
