<svg width="36" height="36" viewBox="0 0 36 36" fill="none" xmlns="http://www.w3.org/2000/svg">
<circle cx="18" cy="18" r="17" fill="#2ECC71" stroke="white" stroke-width="2"/>
<path d="M18 21C13.58 21 10 22.79 10 25V27H26V25C26 22.79 22.42 21 18 21ZM14 15C14 16.0609 14.4214 17.0783 15.1716 17.8284C15.9217 18.5786 16.9391 19 18 19C19.0609 19 20.0783 18.5786 20.8284 17.8284C21.5786 17.0783 22 16.0609 22 15H14ZM17.5 8C17.2 8 17 8.21 17 8.5V11.5H16V9C16 9 13.75 9.86 13.75 12.75C13.75 12.75 13 12.89 13 14H23C22.95 12.89 22.25 12.75 22.25 12.75C22.25 9.86 20 9 20 9V11.5H19V8.5C19 8.21 18.81 8 18.5 8H17.5Z" fill="white"/>
</svg>
